<?xml version="1.0" encoding="UTF-8" standalone="no"?>
<!-- Generator: Adobe Illustrator 16.0.0, SVG Export Plug-In . SVG Version: 6.00 Build 0)  -->

<svg
   xmlns:dc="http://purl.org/dc/elements/1.1/"
   xmlns:cc="http://creativecommons.org/ns#"
   xmlns:rdf="http://www.w3.org/1999/02/22-rdf-syntax-ns#"
   xmlns:svg="http://www.w3.org/2000/svg"
   xmlns="http://www.w3.org/2000/svg"
   xmlns:sodipodi="http://sodipodi.sourceforge.net/DTD/sodipodi-0.dtd"
   xmlns:inkscape="http://www.inkscape.org/namespaces/inkscape"
   version="1.1"
   id="dataCentarLogo"
   x="0px"
   y="0px"
   width="1322.22"
   height="480.8985"
   viewBox="0 0 1322.22 480.8985"
   enable-background="new 0 0 1600 900"
   xml:space="preserve"
   inkscape:version="0.91 r13725"
   sodipodi:docname="logo-vector-fit.svg"><metadata
     id="metadata69"><rdf:RDF><cc:Work
         rdf:about=""><dc:format>image/svg+xml</dc:format><dc:type
           rdf:resource="http://purl.org/dc/dcmitype/StillImage" /><dc:title></dc:title></cc:Work></rdf:RDF></metadata><defs
     id="defs67" /><sodipodi:namedview
     pagecolor="#ffffff"
     bordercolor="#666666"
     borderopacity="1"
     objecttolerance="10"
     gridtolerance="10"
     guidetolerance="10"
     inkscape:pageopacity="0"
     inkscape:pageshadow="2"
     inkscape:window-width="640"
     inkscape:window-height="480"
     id="namedview65"
     showgrid="false"
     fit-margin-top="0"
     fit-margin-left="0"
     fit-margin-right="0"
     fit-margin-bottom="0"
     inkscape:zoom="0.185625"
     inkscape:cx="660.871"
     inkscape:cy="240.76951"
     inkscape:window-x="75"
     inkscape:window-y="34"
     inkscape:window-maximized="0"
     inkscape:current-layer="Layer_1" /><path
     d="m 654.856,90.13 15.666,-2.646 0,128.342 c -3.396,1.009 -7.736,2.016 -13.021,3.02 -5.287,1.005 -11.451,1.51 -18.497,1.51 -6.292,0 -12.021,-1.068 -17.171,-3.209 -5.168,-2.137 -9.568,-5.189 -13.219,-9.154 -3.647,-3.96 -6.483,-8.774 -8.49,-14.437 -2.011,-5.664 -3.024,-12.015 -3.024,-19.062 0,-6.795 0.856,-12.99 2.552,-18.592 1.7,-5.594 4.183,-10.408 7.456,-14.435 3.271,-4.028 7.199,-7.176 11.794,-9.438 4.594,-2.265 9.841,-3.398 15.76,-3.398 4.65,0 8.744,0.567 12.269,1.7 3.521,1.131 6.165,2.33 7.926,3.586 l 0,-43.787 z m 0,59.072 c -1.761,-1.633 -4.34,-3.177 -7.737,-4.623 -3.396,-1.446 -6.925,-2.17 -10.569,-2.17 -4.149,0 -7.706,0.822 -10.663,2.455 -2.96,1.636 -5.375,3.867 -7.265,6.699 -1.887,2.831 -3.277,6.229 -4.153,10.19 -0.882,3.964 -1.322,8.209 -1.322,12.741 0,10.19 2.387,18.054 7.175,23.591 4.775,5.537 11.011,8.304 18.684,8.304 3.897,0 7.201,-0.189 9.909,-0.568 2.704,-0.379 4.688,-0.751 5.942,-1.132 l 0,-55.487 z"
     id="path3"
     inkscape:connector-curvature="0"
     fill="#008f9b" /><path
     d="m 726.766,128.631 c 6.539,0 12.048,0.82 16.514,2.452 4.46,1.639 8.083,3.903 10.854,6.795 2.765,2.899 4.715,6.418 5.85,10.57 1.131,4.153 1.697,8.684 1.697,13.589 l 0,54.733 c -3.649,0.632 -8.46,1.386 -14.438,2.265 -5.981,0.879 -12.112,1.322 -18.4,1.322 -4.784,0 -9.435,-0.41 -13.969,-1.229 -4.526,-0.817 -8.559,-2.264 -12.075,-4.341 -3.525,-2.075 -6.357,-4.935 -8.496,-8.586 -2.139,-3.648 -3.207,-8.305 -3.207,-13.964 0,-5.032 1.1,-9.278 3.302,-12.742 2.201,-3.458 5.033,-6.259 8.493,-8.398 3.462,-2.136 7.421,-3.679 11.893,-4.625 4.464,-0.942 8.963,-1.415 13.493,-1.415 6.16,0 12.204,0.694 18.118,2.078 l 0,-4.343 c 0,-2.643 -0.282,-5.189 -0.85,-7.642 -0.566,-2.455 -1.636,-4.687 -3.213,-6.702 -1.569,-2.01 -3.706,-3.614 -6.408,-4.813 -2.708,-1.193 -6.201,-1.794 -10.479,-1.794 -5.408,0 -10.134,0.379 -14.155,1.134 -4.026,0.753 -7.107,1.511 -9.248,2.264 l -1.885,-12.833 c 2.137,-1.003 5.69,-1.887 10.659,-2.641 4.976,-0.755 10.29,-1.134 15.95,-1.134 z m 1.509,78.513 c 3.902,0 7.388,-0.123 10.474,-0.376 3.085,-0.251 5.632,-0.566 7.645,-0.945 l 0,-26.044 c -2.013,-0.627 -4.439,-1.132 -7.264,-1.509 -2.832,-0.38 -5.825,-0.567 -8.969,-0.567 -2.895,0 -5.727,0.22 -8.492,0.661 -2.767,0.443 -5.219,1.228 -7.364,2.359 -2.139,1.134 -3.892,2.613 -5.278,4.434 -1.387,1.826 -2.075,4.125 -2.075,6.89 0,5.663 1.91,9.595 5.76,11.797 3.834,2.2 9.024,3.3 15.563,3.3 z"
     id="path5"
     inkscape:connector-curvature="0"
     fill="#008f9b" /><path
     d="m 816.6,130.708 36.994,0 0,13.02 -36.994,0 0,40.77 c 0,4.407 0.313,7.991 0.942,10.755 0.628,2.768 1.667,5.004 3.118,6.703 1.443,1.695 3.308,2.86 5.568,3.488 2.264,0.633 5.028,0.947 8.303,0.947 4.532,0 8.177,-0.379 10.95,-1.132 2.767,-0.756 5.408,-1.763 7.924,-3.02 l 2.263,13.209 c -1.76,0.757 -4.561,1.764 -8.397,3.021 -3.842,1.256 -8.584,1.888 -14.247,1.888 -6.546,0 -11.894,-0.758 -16.039,-2.265 -4.155,-1.51 -7.397,-3.774 -9.731,-6.795 -2.322,-3.021 -3.929,-6.761 -4.807,-11.227 -0.882,-4.468 -1.322,-9.658 -1.322,-15.572 l 0,-40.77 -18.492,0 0,-13.02 18.492,0 0,-24.538 15.476,-2.639 0,27.177 z"
     id="path7"
     inkscape:connector-curvature="0"
     fill="#008f9b" /><path
     d="m 907.951,128.631 c 6.539,0 12.046,0.82 16.516,2.452 4.46,1.639 8.077,3.903 10.849,6.795 2.769,2.899 4.719,6.418 5.854,10.57 1.127,4.153 1.697,8.684 1.697,13.589 l 0,54.733 c -3.653,0.632 -8.463,1.386 -14.438,2.265 -5.981,0.879 -12.112,1.322 -18.398,1.322 -4.786,0 -9.44,-0.41 -13.971,-1.229 -4.528,-0.817 -8.559,-2.264 -12.078,-4.341 -3.521,-2.075 -6.353,-4.935 -8.491,-8.586 -2.143,-3.648 -3.209,-8.305 -3.209,-13.964 0,-5.032 1.096,-9.278 3.306,-12.742 2.197,-3.458 5.029,-6.259 8.489,-8.398 3.458,-2.136 7.417,-3.679 11.887,-4.625 4.47,-0.942 8.967,-1.415 13.497,-1.415 6.165,0 12.205,0.694 18.12,2.078 l 0,-4.343 c 0,-2.643 -0.28,-5.189 -0.85,-7.642 -0.562,-2.455 -1.636,-4.687 -3.211,-6.702 -1.571,-2.01 -3.712,-3.614 -6.41,-4.813 -2.712,-1.193 -6.204,-1.794 -10.481,-1.794 -5.408,0 -10.125,0.379 -14.154,1.134 -4.021,0.753 -7.111,1.511 -9.244,2.264 l -1.887,-12.833 c 2.134,-1.003 5.69,-1.887 10.655,-2.641 4.975,-0.755 10.288,-1.134 15.952,-1.134 z m 1.508,78.513 c 3.9,0 7.392,-0.123 10.474,-0.376 3.087,-0.251 5.632,-0.566 7.646,-0.945 l 0,-26.044 c -2.015,-0.627 -4.436,-1.132 -7.266,-1.509 -2.832,-0.38 -5.823,-0.567 -8.967,-0.567 -2.895,0 -5.723,0.22 -8.492,0.661 -2.764,0.443 -5.226,1.228 -7.364,2.359 -2.138,1.134 -3.896,2.613 -5.282,4.434 -1.387,1.826 -2.078,4.125 -2.078,6.89 0,5.663 1.919,9.595 5.759,11.797 3.836,2.2 9.029,3.3 15.57,3.3 z"
     id="path9"
     inkscape:connector-curvature="0"
     fill="#008f9b" /><path
     d="m 597.1,310.953 c 0,-7.928 1.257,-14.785 3.776,-20.572 2.518,-5.786 5.975,-10.57 10.377,-14.344 4.404,-3.773 9.532,-6.572 15.383,-8.398 5.852,-1.822 12.112,-2.736 18.779,-2.736 4.279,0 8.529,0.281 12.742,0.852 4.21,0.563 8.711,1.601 13.493,3.111 l -3.584,13.402 c -4.151,-1.512 -7.96,-2.484 -11.418,-2.928 -3.468,-0.439 -6.954,-0.659 -10.479,-0.659 -4.527,0 -8.808,0.597 -12.833,1.792 -4.024,1.195 -7.516,3.084 -10.476,5.658 -2.953,2.585 -5.313,5.918 -7.075,10.006 -1.764,4.088 -2.64,9.031 -2.64,14.816 0,5.538 0.812,10.285 2.451,14.25 1.636,3.963 3.934,7.234 6.889,9.813 2.954,2.579 6.515,4.5 10.662,5.757 4.155,1.26 8.744,1.889 13.778,1.889 4.025,0 7.895,-0.221 11.606,-0.663 3.715,-0.44 7.772,-1.414 12.175,-2.925 l 2.263,13.022 c -4.407,1.638 -8.868,2.8 -13.397,3.493 -4.53,0.689 -9.438,1.037 -14.721,1.037 -7.048,0 -13.495,-0.976 -19.347,-2.925 -5.851,-1.952 -10.885,-4.813 -15.101,-8.589 -4.212,-3.773 -7.487,-8.522 -9.812,-14.25 -2.325,-5.723 -3.491,-12.361 -3.491,-19.909 z"
     id="path11"
     inkscape:connector-curvature="0"
     fill="#7ec2d1" /><path
     d="m 727.325,264.902 c 11.83,0 20.952,3.678 27.37,11.039 6.417,7.362 9.624,18.531 9.624,33.5 l 0,5.473 -62.655,0 c 0.626,9.063 3.615,15.949 8.963,20.669 5.341,4.718 12.865,7.079 22.552,7.079 5.534,0 10.258,-0.439 14.151,-1.322 3.904,-0.879 6.864,-1.823 8.875,-2.834 l 2.075,13.213 c -1.887,1.013 -5.282,2.076 -10.193,3.208 -4.908,1.132 -10.446,1.7 -16.608,1.7 -7.549,0 -14.187,-1.165 -19.905,-3.492 -5.73,-2.324 -10.477,-5.502 -14.256,-9.532 -3.768,-4.024 -6.602,-8.837 -8.489,-14.437 -1.893,-5.598 -2.833,-11.67 -2.833,-18.213 0,-7.801 1.193,-14.594 3.586,-20.383 2.387,-5.785 5.537,-10.568 9.438,-14.346 3.9,-3.776 8.306,-6.605 13.207,-8.491 4.904,-1.887 9.939,-2.831 15.098,-2.831 z m 21.139,37.37 c 0,-7.422 -1.953,-13.307 -5.849,-17.646 -3.902,-4.343 -9.061,-6.513 -15.477,-6.513 -3.646,0 -6.954,0.693 -9.909,2.074 -2.956,1.386 -5.509,3.209 -7.644,5.474 -2.143,2.265 -3.837,4.847 -5.094,7.738 -1.262,2.897 -2.074,5.851 -2.455,8.872 l 46.428,0 z"
     id="path13"
     inkscape:connector-curvature="0"
     fill="#7ec2d1" /><path
     d="m 782.439,269.432 c 5.66,-1.383 11.288,-2.453 16.887,-3.209 5.605,-0.754 10.854,-1.131 15.764,-1.131 11.702,0 20.542,3.018 26.518,9.059 5.972,6.037 8.961,15.73 8.961,29.064 l 0,51.337 -15.475,0 0,-48.507 c 0,-5.66 -0.505,-10.254 -1.509,-13.775 -1.01,-3.521 -2.424,-6.26 -4.246,-8.215 -1.826,-1.945 -4.025,-3.299 -6.605,-4.053 -2.578,-0.757 -5.379,-1.135 -8.399,-1.135 -2.514,0 -5.19,0.16 -8.022,0.473 -2.832,0.313 -5.565,0.723 -8.209,1.229 l 0,73.983 -15.663,0 0,-85.12 z"
     id="path15"
     inkscape:connector-curvature="0"
     fill="#7ec2d1" /><path
     d="m 905.492,266.979 36.994,0 0,13.023 -36.994,0 0,40.768 c 0,4.404 0.31,7.99 0.948,10.754 0.625,2.769 1.662,5.004 3.109,6.703 1.445,1.695 3.305,2.861 5.571,3.49 2.264,0.631 5.027,0.945 8.303,0.945 4.528,0 8.18,-0.379 10.95,-1.135 2.763,-0.754 5.404,-1.758 7.918,-3.021 l 2.269,13.213 c -1.764,0.756 -4.563,1.765 -8.397,3.021 -3.837,1.255 -8.588,1.887 -14.249,1.887 -6.55,0 -11.892,-0.754 -16.047,-2.265 -4.151,-1.509 -7.394,-3.776 -9.717,-6.792 -2.327,-3.021 -3.93,-6.764 -4.813,-11.234 -0.88,-4.463 -1.323,-9.654 -1.323,-15.566 l 0,-40.768 -18.496,0 0,-13.023 18.496,0 0,-24.536 15.479,-2.643 0,27.179 z"
     id="path17"
     inkscape:connector-curvature="0"
     fill="#7ec2d1" /><path
     d="m 996.843,264.902 c 6.539,0 12.046,0.818 16.514,2.452 4.462,1.639 8.084,3.901 10.851,6.796 2.765,2.896 4.719,6.418 5.848,10.568 1.138,4.152 1.703,8.681 1.703,13.588 l 0,54.734 c -3.653,0.63 -8.469,1.385 -14.436,2.265 -5.984,0.878 -12.115,1.321 -18.403,1.321 -4.784,0 -9.442,-0.41 -13.969,-1.229 -4.53,-0.819 -8.559,-2.264 -12.079,-4.34 -3.523,-2.075 -6.352,-4.937 -8.496,-8.588 -2.137,-3.646 -3.209,-8.305 -3.209,-13.965 0,-5.033 1.102,-9.279 3.306,-12.74 2.197,-3.461 5.029,-6.259 8.491,-8.397 3.462,-2.138 7.425,-3.681 11.897,-4.625 4.461,-0.941 8.96,-1.415 13.489,-1.415 6.162,0 12.204,0.693 18.12,2.075 l 0,-4.341 c 0,-2.644 -0.285,-5.191 -0.853,-7.642 -0.563,-2.456 -1.632,-4.688 -3.201,-6.702 -1.579,-2.012 -3.722,-3.615 -6.422,-4.813 -2.712,-1.194 -6.199,-1.793 -10.473,-1.793 -5.412,0 -10.13,0.379 -14.157,1.132 -4.028,0.757 -7.107,1.511 -9.25,2.265 l -1.889,-12.834 c 2.141,-1.004 5.694,-1.887 10.663,-2.643 4.973,-0.752 10.29,-1.129 15.955,-1.129 z m 1.507,78.514 c 3.894,0 7.392,-0.125 10.477,-0.379 3.081,-0.25 5.63,-0.566 7.644,-0.943 l 0,-26.045 c -2.014,-0.627 -4.437,-1.135 -7.267,-1.508 -2.83,-0.379 -5.821,-0.568 -8.965,-0.568 -2.898,0 -5.725,0.222 -8.493,0.66 -2.77,0.442 -5.218,1.226 -7.358,2.361 -2.145,1.132 -3.906,2.609 -5.287,4.434 -1.387,1.824 -2.075,4.125 -2.075,6.889 0,5.66 1.918,9.596 5.754,11.797 3.835,2.201 9.028,3.302 15.57,3.302 z"
     id="path19"
     inkscape:connector-curvature="0"
     fill="#7ec2d1" /><path
     d="m 1061.013,354.552 0,-82.854 c 12.832,-4.404 25.789,-6.605 38.88,-6.605 4.023,0 7.858,0.157 11.506,0.473 3.648,0.314 7.676,0.973 12.085,1.981 l -2.834,13.776 c -4.031,-1.135 -7.586,-1.855 -10.659,-2.17 -3.085,-0.314 -6.453,-0.472 -10.098,-0.472 -7.677,0 -15.481,1.069 -23.409,3.208 l 0,72.663 -15.471,0 z"
     id="path21"
     inkscape:connector-curvature="0"
     fill="#7ec2d1" /><path
     d="m 1147.006,344.567 c 0,2.629 -0.873,4.947 -2.62,6.962 -1.756,2.015 -4.076,3.023 -6.969,3.023 -2.979,0 -5.346,-1.009 -7.092,-3.023 -1.75,-2.015 -2.627,-4.333 -2.627,-6.962 0,-2.713 0.877,-5.078 2.627,-7.093 1.746,-2.015 4.113,-3.021 7.092,-3.021 2.893,0 5.213,1.006 6.969,3.021 1.747,2.014 2.62,4.38 2.62,7.093 z"
     id="path23"
     inkscape:connector-curvature="0"
     fill="#7ec2d1" /><path
     d="m 1182.179,280.002 -25.289,0 0,-13.023 40.762,0 0,53.791 c 0,8.681 1.193,14.498 3.588,17.457 2.383,2.957 5.976,4.436 10.755,4.436 3.649,0 7.02,-0.439 10.101,-1.322 3.083,-0.879 5.504,-1.823 7.264,-2.834 l 2.269,13.213 c -0.756,0.378 -1.824,0.851 -3.207,1.416 -1.386,0.567 -2.991,1.102 -4.819,1.605 -1.82,0.5 -3.837,0.94 -6.035,1.318 -2.203,0.379 -4.501,0.568 -6.887,0.568 -5.537,0 -10.133,-0.754 -13.78,-2.265 -3.65,-1.509 -6.579,-3.776 -8.778,-6.792 -2.203,-3.021 -3.743,-6.764 -4.625,-11.234 -0.881,-4.463 -1.316,-9.654 -1.316,-15.566 l 0,-40.768 z"
     id="path25"
     inkscape:connector-curvature="0"
     fill="#7ec2d1" /><path
     d="m 1322.22,310.764 c 0,6.92 -0.974,13.184 -2.931,18.779 -1.948,5.602 -4.685,10.412 -8.2,14.439 -3.537,4.029 -7.743,7.144 -12.653,9.341 -4.911,2.197 -10.255,3.304 -16.04,3.304 -5.662,0 -10.919,-1.106 -15.76,-3.304 -4.845,-2.197 -9.033,-5.312 -12.555,-9.341 -3.521,-4.027 -6.255,-8.838 -8.211,-14.439 -1.945,-5.596 -2.924,-11.859 -2.924,-18.779 0,-6.918 0.979,-13.211 2.924,-18.873 1.956,-5.662 4.689,-10.475 8.211,-14.438 3.521,-3.964 7.71,-7.045 12.555,-9.248 4.841,-2.201 10.098,-3.303 15.76,-3.303 5.785,0 11.129,1.102 16.04,3.303 4.91,2.203 9.116,5.284 12.653,9.248 3.516,3.963 6.252,8.775 8.2,14.438 1.957,5.662 2.931,11.955 2.931,18.873 z m -16.045,0 c 0,-9.938 -2.141,-17.771 -6.417,-23.498 -4.279,-5.723 -10.067,-8.585 -17.362,-8.585 -7.174,0 -12.863,2.862 -17.084,8.585 -4.212,5.727 -6.318,13.561 -6.318,23.498 0,9.814 2.106,17.584 6.318,23.31 4.221,5.726 9.91,8.589 17.084,8.589 7.295,0 13.083,-2.863 17.362,-8.589 4.276,-5.726 6.417,-13.496 6.417,-23.31 z"
     id="path27"
     inkscape:connector-curvature="0"
     fill="#7ec2d1" /><path
     d="m 1198.403,240.833 c 0,6.867 -5.566,12.435 -12.442,12.435 -6.868,0 -12.43,-5.568 -12.43,-12.435 0,-6.87 5.562,-12.438 12.43,-12.438 6.876,-0.001 12.442,5.567 12.442,12.438 z"
     id="path29"
     inkscape:connector-curvature="0"
     fill="#008f9b" /><polygon
     points="542.499,408.677 530.129,396.309 492.369,358.55 479.994,346.174 475,341.181 440.066,376.115 457.431,393.48 495.193,431.245 512.554,448.606 547.488,413.67 "
     id="polygon31"
     fill="#008f9b"
     transform="translate(-139.129,-209.871)" /><polygon
     points="545.477,524.738 530.127,509.389 492.359,471.624 482.974,462.24 475,454.265 440.066,489.2 457.424,506.561 495.188,544.328 512.554,561.688 547.492,526.756 "
     id="polygon33"
     fill="#008f9b"
     transform="translate(-139.129,-209.871)" /><polygon
     points="379.283,471.628 368.141,460.483 368.14,460.483 366.911,459.26 361.92,454.266 326.985,489.2 344.347,506.561 382.111,544.327 399.469,561.687 434.405,526.752 429.413,521.758 417.047,509.389 "
     id="polygon35"
     fill="#008f9b"
     transform="translate(-139.129,-209.871)" /><polygon
     points="628.462,454.265 612.516,470.213 644.623,502.318 658.774,488.166 658.774,423.958 "
     id="polygon37"
     fill="#7ec2d1"
     transform="translate(-139.129,-209.871)" /><polygon
     points="601.201,545.74 569.097,513.633 553.149,529.585 522.212,560.516 586.425,560.516 "
     id="polygon39"
     fill="#7ec2d1"
     transform="translate(-139.129,-209.871)" /><polygon
     points="612.514,357.127 644.623,389.238 658.807,375.054 658.807,342.353 627.289,342.353 "
     id="polygon41"
     fill="#7ec2d1"
     transform="translate(-139.129,-209.871)" /><polygon
     points="585.254,448.607 601.201,432.659 569.095,400.551 553.145,416.499 515.383,454.263 499.431,470.21 531.542,502.318 547.488,486.372 "
     id="polygon43"
     fill="#7ec2d1"
     transform="translate(-139.129,-209.871)" /><polygon
     points="488.117,545.742 456.01,513.632 440.062,529.58 409.126,560.516 473.344,560.516 "
     id="polygon45"
     fill="#7ec2d1"
     transform="translate(-139.129,-209.871)" /><polygon
     points="499.439,357.135 531.543,389.238 547.488,373.292 578.428,342.353 514.214,342.353 "
     id="polygon47"
     fill="#7ec2d1"
     transform="translate(-139.129,-209.871)" /><polygon
     points="386.354,470.214 418.461,502.318 434.41,486.371 472.172,448.607 488.123,432.659 456.017,400.552 440.067,416.502 402.305,454.265 "
     id="polygon49"
     fill="#7ec2d1"
     transform="translate(-139.129,-209.871)" /><polygon
     points="386.347,357.128 418.459,389.238 434.41,373.286 465.344,342.353 401.125,342.353 "
     id="polygon51"
     fill="#7ec2d1"
     transform="translate(-139.129,-209.871)" /><polygon
     points="588.082,454.264 553.145,489.2 570.511,506.561 608.271,544.327 626.462,562.516 660.807,562.516 660.807,526.988 655.577,521.759 643.209,509.389 605.445,471.628 593.079,459.26 "
     id="polygon53"
     fill="#008f9b"
     transform="translate(-139.129,-209.871)" /><polygon
     points="286.391,448.603 321.32,413.67 174.068,266.416 139.129,301.348 "
     id="polygon55"
     fill="#008f9b"
     transform="translate(-139.129,-209.871)" /><rect
     x="-404.29565"
     y="-275.79755"
     transform="matrix(-0.70710678,-0.70710678,0.70710678,-0.70710678,0,0)"
     width="45.404564"
     height="205.10103"
     id="rect57"
     fill="#7ec2d1" /><polygon
     points="141.357,602.117 173.47,634.227 321.328,486.371 359.092,448.607 375.037,432.659 342.926,400.551 326.978,416.499 289.219,454.259 "
     id="polygon59"
     fill="#7ec2d1"
     transform="translate(-139.129,-209.871)" /><polygon
     points="230.607,209.871 195.67,244.807 344.34,393.48 382.107,431.244 394.476,443.613 399.476,448.608 434.41,413.674 417.045,396.309 379.276,358.542 366.911,346.174 "
     id="polygon61"
     fill="#008f9b"
     transform="translate(-139.129,-209.871)" /><polygon
     points="588.082,341.184 553.145,376.12 570.509,393.48 608.271,431.245 625.634,448.607 660.576,413.673 658.558,411.656 643.209,396.309 605.443,358.542 596.054,349.153 "
     id="polygon63"
     fill="#008f9b"
     transform="translate(-139.129,-209.871)" /></svg>