<?xml version="1.0" encoding="utf-8"?>
<!-- Generator: Adobe Illustrator 18.0.0, SVG Export Plug-In . SVG Version: 6.00 Build 0)  -->
<!DOCTYPE svg PUBLIC "-//W3C//DTD SVG 1.1//EN" "http://www.w3.org/Graphics/SVG/1.1/DTD/svg11.dtd">
<svg version="1.1" id="Layer_1" xmlns="http://www.w3.org/2000/svg" xmlns:xlink="http://www.w3.org/1999/xlink" x="0px" y="0px"
	 viewBox="0 0 200 45" enable-background="new 0 0 200 45" xml:space="preserve">
<g>
	<path fill="#FFFFFF" d="M65.399,30.245c-1.666-3.038-4.509-4.247-7.809-4.247c-4.803,0-8.625,3.397-8.625,9.148
		c0,5.848,3.594,9.147,8.788,9.147c3.333,0,6.176-1.83,7.744-4.607l-3.66-1.861c-0.817,1.961-2.059,2.549-3.626,2.549
		c-2.712,0-3.953-2.255-3.953-5.228c0-2.974,1.046-5.228,3.953-5.228c0.784,0,2.353,0.424,3.266,2.385L65.399,30.245z"/>
	<path fill="#FFFFFF" d="M74.74,29.918c2.908,0,4.149,2.254,4.149,5.031c0,3.169-1.241,5.424-4.149,5.424s-4.148-2.255-4.148-5.228
		C70.591,32.172,71.832,29.918,74.74,29.918z M74.74,25.998c-5.424,0-9.246,3.3-9.246,9.148s3.822,9.147,9.246,9.147
		s9.246-3.3,9.246-9.147C83.986,29.297,80.164,25.998,74.74,25.998z"/>
	<path fill="#FFFFFF" d="M85.031,43.835h5.097V33.022c0-1.568,0.653-2.908,2.712-2.908c1.959,0,2.482,1.144,2.482,2.843v10.879
		h5.097V33.153c0-1.765,0.882-3.039,2.581-3.039c1.928,0,2.613,1.111,2.613,3.562v10.16h5.098V30.572
		c0-3.986-3.66-4.574-5.359-4.574c-2.025,0-3.92,0.62-5.586,2.319c-1.145-1.535-2.613-2.319-4.606-2.319
		c-1.568,0-3.724,0.457-5.031,1.993v-1.536h-5.097v17.38H85.031z"/>
	<path fill="#FFFFFF" d="M112.34,43.835h5.096V33.022c0-1.568,0.654-2.908,2.711-2.908c1.961,0,2.484,1.144,2.484,2.843v10.879
		h5.095V33.153c0-1.765,0.883-3.039,2.582-3.039c1.928,0,2.614,1.111,2.614,3.562v10.16h5.097V30.572
		c0-3.986-3.659-4.574-5.358-4.574c-2.025,0-3.92,0.62-5.586,2.319c-1.144-1.535-2.614-2.319-4.607-2.319
		c-1.568,0-3.725,0.457-5.032,1.993v-1.536h-5.096V43.835z"/>
	<path fill="#FFFFFF" d="M148.308,29.918c2.908,0,4.149,2.254,4.149,5.031c0,3.169-1.241,5.424-4.149,5.424
		s-4.149-2.255-4.149-5.228C144.159,32.172,145.4,29.918,148.308,29.918z M148.308,25.998c-5.424,0-9.247,3.3-9.247,9.148
		s3.823,9.147,9.247,9.147s9.246-3.3,9.246-9.147C157.554,29.297,153.732,25.998,148.308,25.998z"/>
	<path fill="#FFFFFF" d="M158.925,43.835h5.095V33.022c0-1.568,0.655-2.908,2.713-2.908c1.96,0,2.482,1.144,2.482,2.843v10.879
		h5.098V30.997c0-2.614-1.145-4.999-5.261-4.999c-1.567,0-3.725,0.457-5.033,1.993v-1.536h-5.095L158.925,43.835L158.925,43.835z"/>
	<path fill="#FFFFFF" d="M191.332,28.513c-2.352-1.568-4.998-2.516-7.677-2.516c-3.529,0-7.352,1.699-7.352,6.077
		c0,6.174,10.291,4.019,10.291,6.73c0,1.568-1.927,1.764-2.776,1.764c-2.32,0-3.921-0.947-5.489-2.45l-3.169,2.744
		c2.549,2.353,4.705,3.431,8.495,3.431c3.789,0,7.841-1.634,7.841-6.207c0-6.502-10.291-4.052-10.291-7.025
		c0-0.881,0.914-1.339,2.188-1.339c1.602,0,3.791,0.653,4.803,1.862L191.332,28.513z"/>
	<path fill="#FFFFFF" d="M65.399,10.249C63.733,7.21,60.89,6.001,57.59,6.001c-4.803,0-8.625,3.398-8.625,9.148
		c0,5.848,3.594,9.148,8.788,9.148c3.333,0,6.176-1.83,7.744-4.607l-3.66-1.861c-0.817,1.96-2.059,2.548-3.626,2.548
		c-2.712,0-3.953-2.255-3.953-5.228s1.046-5.228,3.953-5.228c0.784,0,2.353,0.425,3.266,2.386L65.399,10.249z"/>
	<path fill="#FFFFFF" d="M66.642,23.84h5.098V13.777c0-1.928,1.209-2.45,4.246-2.81l0.557-0.065L76.51,6.393
		c-1.797,0.131-3.659,0.784-4.77,1.83V6.458h-5.098V23.84z"/>
	<path fill="#FFFFFF" d="M93.851,16.194c-0.032-5.357-2.189-10.193-8.527-10.193c-5.293,0-8.527,3.529-8.527,9.672
		c0,4.9,3.137,8.625,8.527,8.625c3.888,0,6.665-1.536,8.429-4.803l-3.822-1.993c-1.47,2.091-2.353,3.071-4.247,3.071
		c-1.633,0-3.758-1.046-3.79-4.379L93.851,16.194L93.851,16.194z M81.828,13.058c0.229-2.287,1.993-3.332,3.463-3.332
		c1.471,0,3.301,0.784,3.463,3.332H81.828z"/>
	<path fill="#FFFFFF" d="M105.542,16.586c0,2.646-1.503,3.986-3.496,3.986c-1.241,0-2.385-0.588-2.385-1.961
		c0-1.404,1.176-1.895,2.451-2.254l3.43-0.98L105.542,16.586L105.542,16.586z M110.443,11.033c-0.033-3.921-3.006-5.032-7.743-5.032
		c-2.353,0-6.991,0.458-7.155,5.457h4.901c0.261-1.731,1.045-2.32,2.679-2.32c1.373,0,2.418,0.556,2.418,1.863v1.438l-1.862,0.261
		c-5.554,0.784-8.919,2.255-8.919,6.437c0,3.332,2.482,5.162,5.814,5.162c1.83,0,4.379-0.883,5.228-2.255h0.065
		c0.033,0.589,0.131,1.209,0.327,1.798h4.704c-0.424-1.079-0.457-2.418-0.457-3.627L110.443,11.033L110.443,11.033z"/>
	<path fill="#FFFFFF" d="M122.429,6.786h-3.039V1.755h-5.098v5.031h-2.482v3.136h2.482v9.148c0,2.516,0.621,5.228,4.967,5.228
		c1.111,0,2.613-0.131,3.268-0.196v-4.019c-0.262,0.032-0.98,0.098-1.535,0.098c-0.916,0-1.602-0.359-1.602-1.731V9.923h3.039
		L122.429,6.786L122.429,6.786z"/>
	<path fill="#FFFFFF" d="M124.348,6.458V23.84h5.097V6.458H124.348z M129.445,4.499V0.578h-5.097v3.921H129.445z"/>
	<polygon fill="#FFFFFF" points="136.304,23.84 141.433,23.84 147.38,6.458 141.957,6.458 138.951,18.743 138.885,18.743 
		135.878,6.458 130.423,6.458 	"/>
	<path fill="#FFFFFF" d="M163.839,16.194c-0.033-5.357-2.189-10.193-8.528-10.193c-5.293,0-8.527,3.529-8.527,9.672
		c0,4.9,3.136,8.625,8.527,8.625c3.888,0,6.665-1.536,8.429-4.803l-3.823-1.993c-1.469,2.091-2.352,3.071-4.246,3.071
		c-1.634,0-3.758-1.046-3.791-4.379L163.839,16.194L163.839,16.194z M151.816,13.058c0.229-2.287,1.992-3.332,3.463-3.332
		s3.301,0.784,3.463,3.332H151.816z"/>
	<g>
		<path fill="#FFFFFF" d="M27.54,5.709c-5.244,0-9.858,1.939-13.425,5.559c-3.671,3.723-5.664,8.548-5.664,13.582
			c0,5.087,1.94,9.807,5.611,13.478c3.671,3.671,8.444,5.663,13.478,5.663s9.911-1.992,13.687-5.716
			c3.566-3.514,5.454-8.181,5.454-13.425c0-5.191-1.888-9.911-5.507-13.529C37.503,7.649,32.784,5.709,27.54,5.709z M27.591,9.17
			c4.301,0,8.129,1.625,11.118,4.614c2.936,2.937,4.51,6.817,4.51,11.065c0,4.301-1.521,8.076-4.458,10.961
			c-3.094,3.041-7.079,4.666-11.17,4.666c-4.143,0-8.023-1.625-11.012-4.613c-2.99-2.99-4.668-6.924-4.668-11.014
			c0-4.143,1.678-8.076,4.668-11.117C19.515,10.744,23.292,9.17,27.591,9.17z"/>
		<path fill="#FFFFFF" d="M27.345,21.669c-1.082-1.972-2.926-2.756-5.067-2.756c-3.116,0-5.598,2.205-5.598,5.937
			c0,3.795,2.333,5.937,5.704,5.937c2.162,0,4.007-1.188,5.025-2.989l-2.375-1.209c-0.531,1.272-1.336,1.654-2.354,1.654
			c-1.76,0-2.566-1.463-2.566-3.393s0.68-3.393,2.566-3.393c0.508,0,1.525,0.275,2.119,1.548L27.345,21.669z"/>
		<path fill="#FFFFFF" d="M38.387,21.669c-1.081-1.972-2.926-2.756-5.067-2.756c-3.117,0-5.598,2.205-5.598,5.937
			c0,3.795,2.332,5.937,5.703,5.937c2.164,0,4.008-1.188,5.025-2.989l-2.375-1.209c-0.529,1.272-1.336,1.654-2.354,1.654
			c-1.76,0-2.564-1.463-2.564-3.393s0.678-3.393,2.564-3.393c0.51,0,1.527,0.275,2.121,1.548L38.387,21.669z"/>
	</g>
</g>
</svg>
