<?xml version="1.0" encoding="utf-8"?>
<!-- Generator: Adobe Illustrator 16.0.0, SVG Export Plug-In . SVG Version: 6.00 Build 0)  -->
<!DOCTYPE svg PUBLIC "-//W3C//DTD SVG 1.1//EN" "http://www.w3.org/Graphics/SVG/1.1/DTD/svg11.dtd">
<svg version="1.1" id="Layer_1" xmlns="http://www.w3.org/2000/svg" xmlns:xlink="http://www.w3.org/1999/xlink" x="0px" y="0px"
	 width="257.95px" height="257.95px" viewBox="0 0 257.95 257.95" enable-background="new 0 0 257.95 257.95" xml:space="preserve">
<g>
	<g>
		<g opacity="0.5">
			<path fill="#FFFFFF" d="M14.918,255.952c-7.124,0-12.92-5.796-12.92-12.92V14.918c0-7.124,5.796-12.92,12.92-12.92h228.113
				c7.124,0,12.92,5.796,12.92,12.92v228.113c0,7.124-5.796,12.92-12.92,12.92H14.918z"/>
			<path fill="#0794A0" d="M243.031,3.999c6.021,0,10.92,4.898,10.92,10.92v228.113c0,6.021-4.898,10.92-10.92,10.92H14.918
				c-6.021,0-10.92-4.898-10.92-10.92V14.918c0-6.021,4.898-10.92,10.92-10.92H243.031 M243.031-0.001H14.918
				c-8.206,0-14.92,6.714-14.92,14.92v228.113c0,8.206,6.714,14.92,14.92,14.92h228.113c8.206,0,14.92-6.714,14.92-14.92V14.918
				C257.951,6.712,251.237-0.001,243.031-0.001L243.031-0.001z"/>
		</g>
		<path fill="#7EC2D1" d="M209.023,190.799l-34.533-34.533c8.32-12.021,12.484-25.412,12.484-40.179c0-9.6-1.865-18.778-5.588-27.54
			c-3.73-8.756-8.762-16.311-15.104-22.654c-6.344-6.341-13.893-11.381-22.654-15.104c-8.762-3.723-17.939-5.588-27.541-5.588
			c-9.6,0-18.781,1.865-27.539,5.588c-8.756,3.723-16.313,8.762-22.654,15.104c-6.342,6.343-11.383,13.898-15.104,22.654
			c-3.723,8.762-5.588,17.939-5.588,27.54c0,9.602,1.865,18.774,5.588,27.536c3.721,8.762,8.762,16.311,15.104,22.658
			c6.342,6.344,13.898,11.375,22.654,15.105c8.758,3.723,17.939,5.588,27.539,5.588c14.767,0,28.162-4.165,40.177-12.492
			l34.535,34.438c2.414,2.548,5.43,3.826,9.057,3.826c3.561,0,6.596-1.261,9.111-3.777c2.523-2.516,3.777-5.551,3.777-9.112
			C212.746,196.297,211.51,193.28,209.023,190.799z M116.051,170.825c-30.477,0-55.184-24.706-55.184-55.183
			c0-30.476,24.707-55.181,55.184-55.181c30.474,0,55.181,24.705,55.181,55.181C171.232,146.119,146.525,170.825,116.051,170.825z"
			/>
	</g>
	<g>
		<path fill="#7EC2D1" d="M156.24,113.747c-4.32-7.07-10.135-12.749-17.434-17.042c-7.301-4.292-15.009-6.438-23.13-6.438
			c-8.117,0-15.826,2.146-23.127,6.438c-7.301,4.292-13.111,9.971-17.434,17.042c-0.619,1.08-0.926,2.146-0.926,3.193
			c0,1.05,0.307,2.116,0.926,3.195c4.322,7.07,10.133,12.75,17.434,17.043c7.301,4.289,15.01,6.434,23.127,6.434
			c8.121,0,15.83-2.14,23.13-6.412c7.299-4.277,13.113-9.965,17.434-17.064c0.619-1.079,0.926-2.143,0.926-3.195
			C157.166,115.892,156.859,114.827,156.24,113.747L156.24,113.747z M105.745,101.081c2.764-2.76,6.074-4.144,9.932-4.144
			c0.619,0,1.145,0.217,1.578,0.646c0.428,0.434,0.646,0.958,0.646,1.576c0,0.616-0.219,1.14-0.646,1.574
			c-0.434,0.435-0.959,0.646-1.574,0.646c-2.654,0-4.924,0.943-6.807,2.825c-1.885,1.885-2.826,4.154-2.826,6.808
			c0,0.618-0.217,1.143-0.646,1.574c-0.436,0.434-0.961,0.647-1.576,0.647c-0.617,0-1.143-0.216-1.576-0.647
			c-0.43-0.431-0.646-0.956-0.646-1.574C101.602,107.155,102.983,103.845,105.745,101.081L105.745,101.081z M135.797,132.06
			c-6.189,3.747-12.896,5.624-20.121,5.624c-7.223,0-13.926-1.873-20.119-5.624c-6.189-3.751-11.336-8.792-15.439-15.12
			c4.693-7.285,10.574-12.735,17.639-16.344c-1.881,3.209-2.822,6.684-2.822,10.417c0,5.711,2.031,10.594,6.088,14.655
			c4.059,4.059,8.945,6.088,14.654,6.088c5.711,0,10.598-2.029,14.654-6.088c4.063-4.062,6.096-8.944,6.096-14.655
			c0-3.733-0.947-7.208-2.826-10.417c7.068,3.609,12.945,9.059,17.639,16.344C147.135,123.268,141.988,128.306,135.797,132.06
			L135.797,132.06z M135.797,132.06"/>
	</g>
</g>
</svg>
