<?xml version="1.0" encoding="utf-8"?>
<!-- Generator: Adobe Illustrator 16.0.0, SVG Export Plug-In . SVG Version: 6.00 Build 0)  -->
<!DOCTYPE svg PUBLIC "-//W3C//DTD SVG 1.1//EN" "http://www.w3.org/Graphics/SVG/1.1/DTD/svg11.dtd">
<svg version="1.1" id="Layer_1" xmlns="http://www.w3.org/2000/svg" xmlns:xlink="http://www.w3.org/1999/xlink" x="0px" y="0px"
	 width="257.95px" height="257.95px" viewBox="0 0 257.95 257.95" enable-background="new 0 0 257.95 257.95" xml:space="preserve">
<g>
	<path fill="#FFFFFF" d="M243.031,3.998c6.021,0,10.92,4.899,10.92,10.92v228.114c0,6.021-4.898,10.92-10.92,10.92H14.919
		c-6.021,0-10.92-4.899-10.92-10.92V14.918c0-6.021,4.899-10.92,10.92-10.92H243.031 M243.031-0.002H14.919
		c-8.207,0-14.92,6.714-14.92,14.92v228.114c0,8.206,6.714,14.92,14.92,14.92h228.112c8.206,0,14.92-6.714,14.92-14.92V14.918
		C257.951,6.712,251.237-0.002,243.031-0.002L243.031-0.002z"/>
</g>
<g>
	<path fill="#FFFFFF" d="M34.341,180.444c-0.313,0-0.584,0.114-0.813,0.342c-0.229,0.229-0.342,0.5-0.342,0.813v30.03
		c0,0.313,0.113,0.585,0.342,0.813c0.229,0.228,0.499,0.343,0.813,0.343h57.752c0.312,0,0.584-0.115,0.811-0.343
		c0.229-0.229,0.344-0.5,0.344-0.813v-30.03c0-0.313-0.114-0.584-0.344-0.813c-0.227-0.228-0.498-0.342-0.811-0.342H34.341z"/>
	<path fill="#0794A0" d="M188.986,79.27c-4.055-5.073-9.236-8.364-15.553-9.865c1.996-3.011,2.99-6.364,2.99-10.052
		c0-5.146-1.824-9.541-5.465-13.182c-3.639-3.64-8.033-5.461-13.18-5.461c-4.613,0-8.643,1.502-12.086,4.514
		c-2.863-6.992-7.441-12.597-13.73-16.821c-6.287-4.226-13.216-6.338-20.792-6.338c-10.296,0-19.084,3.646-26.366,10.926
		c-7.283,7.28-10.921,16.069-10.921,26.363c0,0.632,0.046,1.676,0.144,3.134c-5.729,2.665-10.293,6.673-13.694,12.016
		c-3.396,5.338-5.095,11.165-5.095,17.477c0,8.983,3.193,16.669,9.574,23.05c6.389,6.385,14.069,9.581,23.05,9.581h79.243
		c7.717,0,14.307-2.734,19.773-8.197c5.459-5.462,8.191-12.052,8.191-19.773C195.07,90.137,193.041,84.345,188.986,79.27z"/>
	<path fill="#FFFFFF" d="M132.75,61.114c-0.408-0.407-0.887-0.611-1.443-0.611H119c-0.557,0-1.036,0.204-1.444,0.611
		c-0.403,0.403-0.606,0.887-0.606,1.44v22.565h-14.36c-0.552,0-1.033,0.2-1.441,0.607c-0.407,0.405-0.605,0.887-0.605,1.44
		c0,0.599,0.188,1.092,0.575,1.476l22.562,22.561c0.384,0.389,0.876,0.581,1.475,0.581c0.598,0,1.088-0.192,1.476-0.581
		l22.496-22.496c0.428-0.514,0.643-1.025,0.643-1.541c0-0.596-0.191-1.087-0.576-1.475c-0.387-0.38-0.877-0.573-1.475-0.573h-14.357
		V62.554C133.359,62.001,133.154,61.517,132.75,61.114z"/>
	<g>
		<path fill="#0794A0" d="M96.171,177.518c-1.132-1.129-2.489-1.696-4.078-1.696H34.341c-1.589,0-2.948,0.567-4.08,1.696
			c-1.131,1.132-1.695,2.493-1.695,4.08v39.272c0,1.588,0.564,2.948,1.695,4.078c1.132,1.131,2.491,1.697,4.08,1.697h19.636
			c0,0.914-0.193,1.852-0.578,2.814c-0.386,0.963-0.769,1.805-1.154,2.526c-0.386,0.724-0.577,1.251-0.577,1.588
			c0,0.626,0.229,1.168,0.685,1.625c0.455,0.456,1,0.687,1.625,0.687h18.48c0.626,0,1.168-0.23,1.624-0.687
			c0.458-0.457,0.687-0.999,0.687-1.625c0-0.312-0.192-0.837-0.578-1.57c-0.385-0.733-0.77-1.588-1.154-2.562
			c-0.386-0.975-0.578-1.907-0.578-2.797h19.636c1.589,0,2.946-0.566,4.078-1.697c1.132-1.13,1.697-2.49,1.697-4.078v-39.272
			C97.869,180.011,97.303,178.65,96.171,177.518L96.171,177.518z M93.248,211.628c0,0.313-0.114,0.585-0.344,0.813
			c-0.227,0.228-0.499,0.343-0.811,0.343H34.341c-0.313,0-0.584-0.115-0.813-0.343c-0.229-0.229-0.342-0.5-0.342-0.813v-30.03
			c0-0.313,0.112-0.584,0.342-0.813c0.229-0.228,0.499-0.342,0.813-0.342h57.752c0.313,0,0.584,0.114,0.811,0.342
			c0.229,0.229,0.344,0.5,0.344,0.813V211.628z M93.248,211.628"/>
	</g>
	<path fill="#0794A0" d="M163.125,220.934h47.934c1.938,0,3.596-0.69,4.977-2.071c1.381-1.379,2.07-3.041,2.07-4.979v-31.013
		c0-1.939-0.689-3.598-2.07-4.979s-3.039-2.07-4.977-2.07h-47.934c-1.936,0-3.594,0.689-4.977,2.07
		c-1.381,1.381-2.068,3.039-2.068,4.979v31.013c0,1.938,0.688,3.601,2.068,4.979C159.531,220.244,161.189,220.934,163.125,220.934
		L163.125,220.934z M161.715,182.871c0-0.383,0.141-0.711,0.42-0.991c0.281-0.277,0.611-0.417,0.99-0.417h47.932
		c0.383,0,0.713,0.137,0.992,0.417c0.277,0.28,0.418,0.608,0.418,0.991v31.013c0,0.384-0.141,0.714-0.418,0.994
		c-0.279,0.277-0.609,0.417-0.992,0.417h-47.932c-0.379,0-0.709-0.14-0.99-0.417c-0.279-0.28-0.42-0.61-0.42-0.994V182.871z
		 M161.715,182.871"/>
	<path fill="#FFFFFF" d="M163.125,181.462c-0.379,0-0.709,0.14-0.99,0.417c-0.279,0.28-0.42,0.608-0.42,0.991v31.013
		c0,0.384,0.141,0.714,0.42,0.994c0.281,0.277,0.611,0.417,0.99,0.417h47.932c0.383,0,0.713-0.14,0.992-0.417
		c0.277-0.28,0.418-0.61,0.418-0.994v-31.013c0-0.383-0.141-0.711-0.418-0.991c-0.279-0.28-0.609-0.417-0.992-0.417H163.125z"/>
	<path fill="#0794A0" d="M222.336,223.753h-77.537v4.23c0,1.176,0.691,2.173,2.07,2.992c1.381,0.825,3.041,1.234,4.98,1.234h70.486
		c1.938,0,3.598-0.409,4.977-1.234c1.381-0.819,2.072-1.816,2.072-2.992v-4.23H222.336z M190.615,227.984h-7.047
		c-0.471,0-0.705-0.238-0.705-0.705c0-0.473,0.234-0.708,0.705-0.708h7.047c0.471,0,0.709,0.235,0.709,0.708
		C191.32,227.749,191.086,227.984,190.615,227.984L190.615,227.984z M190.615,227.984"/>
	
		<line fill="none" stroke="#0794A0" stroke-width="8.8483" stroke-miterlimit="10" x1="125.154" y1="129.075" x2="125.154" y2="154.391"/>
	<g>
		<path fill="none" stroke="#0794A0" stroke-width="8.8483" stroke-miterlimit="10" d="M63.217,171.718c0,0,0-3.898,0-8.663
			s4.703-8.664,10.451-8.664h102.972c5.748,0,10.451,3.595,10.451,7.988s0,7.988,0,7.988"/>
	</g>
</g>
</svg>
