<?xml version="1.0" encoding="utf-8"?>
<!-- Generator: Adobe Illustrator 16.0.0, SVG Export Plug-In . SVG Version: 6.00 Build 0)  -->
<!DOCTYPE svg PUBLIC "-//W3C//DTD SVG 1.1//EN" "http://www.w3.org/Graphics/SVG/1.1/DTD/svg11.dtd">
<svg version="1.1" id="Layer_1" xmlns="http://www.w3.org/2000/svg" xmlns:xlink="http://www.w3.org/1999/xlink" x="0px" y="0px"
	 width="257.95px" height="257.95px" viewBox="0 0 257.95 257.95" enable-background="new 0 0 257.95 257.95" xml:space="preserve">
<g>
	<path fill="#FFFFFF" d="M243.031,4c6.021,0,10.92,4.898,10.92,10.92v228.113c0,6.021-4.898,10.92-10.92,10.92H14.919
		c-6.021,0-10.92-4.898-10.92-10.92V14.92C3.999,8.898,8.897,4,14.919,4H243.031 M243.031,0H14.919C6.713,0-0.001,6.714-0.001,14.92
		v228.113c0,8.206,6.714,14.92,14.92,14.92h228.112c8.206,0,14.92-6.714,14.92-14.92V14.92C257.951,6.714,251.237,0,243.031,0
		L243.031,0z"/>
</g>
<g>
	<circle fill="#FFFFFF" cx="116.05" cy="115.643" r="55.183"/>
	<path fill="#0794A0" d="M209.023,190.801l-34.533-34.533c8.32-12.021,12.484-25.412,12.484-40.179c0-9.6-1.865-18.778-5.588-27.54
		c-3.729-8.756-8.762-16.311-15.104-22.654c-6.344-6.341-13.892-11.381-22.654-15.104c-8.761-3.723-17.939-5.588-27.541-5.588
		c-9.6,0-18.78,1.865-27.539,5.588c-8.756,3.723-16.312,8.762-22.653,15.104c-6.343,6.343-11.384,13.898-15.104,22.654
		c-3.723,8.762-5.588,17.939-5.588,27.54c0,9.602,1.865,18.774,5.588,27.536c3.721,8.762,8.762,16.311,15.104,22.658
		c6.342,6.344,13.897,11.375,22.653,15.105c8.759,3.723,17.939,5.588,27.539,5.588c14.768,0,28.163-4.165,40.178-12.492
		l34.535,34.438c2.414,2.548,5.43,3.826,9.057,3.826c3.561,0,6.596-1.261,9.112-3.777c2.522-2.516,3.777-5.551,3.777-9.112
		C212.747,196.299,211.51,193.281,209.023,190.801z M116.051,170.826c-30.477,0-55.184-24.706-55.184-55.183
		c0-30.476,24.707-55.181,55.184-55.181c30.475,0,55.182,24.705,55.182,55.181C171.232,146.12,146.525,170.826,116.051,170.826z"/>
	<g>
		<path fill="#0794A0" d="M156.24,113.748c-4.32-7.07-10.135-12.749-17.434-17.042c-7.301-4.292-15.01-6.438-23.131-6.438
			c-8.116,0-15.826,2.146-23.127,6.438c-7.301,4.292-13.111,9.971-17.434,17.042c-0.619,1.08-0.926,2.146-0.926,3.193
			c0,1.05,0.307,2.116,0.926,3.195c4.322,7.071,10.133,12.75,17.434,17.043c7.301,4.289,15.011,6.434,23.127,6.434
			c8.121,0,15.83-2.14,23.131-6.412c7.299-4.277,13.113-9.964,17.434-17.065c0.619-1.079,0.926-2.143,0.926-3.195
			C157.166,115.894,156.859,114.828,156.24,113.748L156.24,113.748z M105.744,101.083c2.765-2.76,6.075-4.144,9.932-4.144
			c0.62,0,1.145,0.217,1.578,0.646c0.428,0.434,0.646,0.958,0.646,1.576c0,0.616-0.219,1.14-0.646,1.574
			c-0.434,0.435-0.958,0.646-1.574,0.646c-2.654,0-4.924,0.943-6.807,2.825c-1.885,1.885-2.825,4.154-2.825,6.808
			c0,0.618-0.218,1.143-0.647,1.574c-0.435,0.434-0.961,0.647-1.576,0.647c-0.617,0-1.143-0.216-1.576-0.647
			c-0.43-0.431-0.646-0.956-0.646-1.574C101.602,107.156,102.982,103.846,105.744,101.083L105.744,101.083z M135.797,132.062
			c-6.189,3.747-12.896,5.624-20.121,5.624c-7.223,0-13.926-1.873-20.119-5.624c-6.189-3.751-11.336-8.792-15.439-15.12
			c4.693-7.285,10.574-12.735,17.64-16.344c-1.882,3.209-2.823,6.684-2.823,10.417c0,5.711,2.032,10.594,6.088,14.655
			c4.059,4.059,8.945,6.088,14.654,6.088c5.712,0,10.598-2.029,14.655-6.088c4.063-4.062,6.095-8.944,6.095-14.655
			c0-3.733-0.946-7.208-2.826-10.417c7.068,3.609,12.946,9.059,17.639,16.344C147.136,123.27,141.988,128.308,135.797,132.062
			L135.797,132.062z M135.797,132.062"/>
	</g>
</g>
</svg>
