<?xml version="1.0" encoding="utf-8"?>
<!-- Generator: Adobe Illustrator 16.0.0, SVG Export Plug-In . SVG Version: 6.00 Build 0)  -->
<!DOCTYPE svg PUBLIC "-//W3C//DTD SVG 1.1//EN" "http://www.w3.org/Graphics/SVG/1.1/DTD/svg11.dtd">
<svg version="1.1" id="Layer_1" xmlns="http://www.w3.org/2000/svg" xmlns:xlink="http://www.w3.org/1999/xlink" x="0px" y="0px"
	 width="257.95px" height="257.95px" viewBox="0 0 257.95 257.95" enable-background="new 0 0 257.95 257.95" xml:space="preserve">
<g>
	<g opacity="0.5">
		<path fill="#FFFFFF" d="M14.919,255.952c-7.124,0-12.92-5.796-12.92-12.92V14.919c0-7.124,5.796-12.92,12.92-12.92h228.112
			c7.124,0,12.92,5.796,12.92,12.92v228.113c0,7.124-5.796,12.92-12.92,12.92H14.919z"/>
		<path fill="#0794A0" d="M243.031,3.999c6.021,0,10.92,4.898,10.92,10.92v228.113c0,6.021-4.898,10.92-10.92,10.92H14.919
			c-6.021,0-10.92-4.898-10.92-10.92V14.919c0-6.021,4.898-10.92,10.92-10.92H243.031 M243.031-0.001H14.919
			C6.713-0.001,0,6.713,0,14.919v228.113c0,8.206,6.714,14.92,14.92,14.92h228.112c8.206,0,14.92-6.714,14.92-14.92V14.919
			C257.951,6.713,251.237-0.001,243.031-0.001L243.031-0.001z"/>
	</g>
	<g>
		<g>
			<path fill="#7EC2D1" d="M97.689,147.749c0.404-0.404,0.605-0.92,0.605-1.551c0-0.629-0.201-1.146-0.605-1.549
				c-0.402-0.404-0.92-0.605-1.551-0.607l-21.561,0.002c-0.631,0.002-1.148,0.199-1.553,0.605c-0.406,0.402-0.605,0.92-0.605,1.549
				c-0.002,0.631,0.199,1.148,0.605,1.553s0.922,0.605,1.551,0.605h21.563C96.769,148.356,97.285,148.155,97.689,147.749
				L97.689,147.749z M97.689,147.749"/>
			<path fill="#7EC2D1" d="M145.74,98.755c0.631,0,1.146-0.203,1.551-0.607c0.404-0.402,0.605-0.92,0.605-1.551V75.036
				c0-0.631-0.201-1.148-0.605-1.551c-0.404-0.406-0.922-0.607-1.549-0.607c-0.633,0-1.148,0.201-1.553,0.607
				c-0.404,0.402-0.604,0.92-0.607,1.551l0.002,21.561c0,0.631,0.201,1.148,0.605,1.553
				C144.598,98.552,145.115,98.755,145.74,98.755L145.74,98.755z M145.74,98.755"/>
			<path fill="#7EC2D1" d="M100.453,154.827c-0.586,0-1.1,0.201-1.553,0.605l-17.248,17.25c-0.402,0.451-0.605,0.969-0.605,1.551
				c-0.002,0.584,0.201,1.102,0.605,1.551c0.492,0.404,1.008,0.605,1.551,0.605c0.58,0,1.098-0.201,1.551-0.605l17.25-17.25
				c0.402-0.451,0.605-0.969,0.605-1.551c-0.002-0.586-0.203-1.104-0.607-1.551C101.556,155.028,101.039,154.827,100.453,154.827
				L100.453,154.827z M100.453,154.827"/>
			<path fill="#7EC2D1" d="M156.525,103.067c0.537,0,1.053-0.201,1.551-0.605l17.25-17.248c0.404-0.453,0.605-0.973,0.604-1.551
				c0-0.588-0.199-1.105-0.604-1.551c-0.451-0.406-0.965-0.607-1.553-0.609c-0.582,0.002-1.098,0.203-1.547,0.609l-17.254,17.246
				c-0.398,0.455-0.605,0.973-0.605,1.551c0,0.59,0.207,1.105,0.605,1.553C155.471,102.866,155.986,103.067,156.525,103.067
				L156.525,103.067z M156.525,103.067"/>
			<path fill="#7EC2D1" d="M155.174,118.435c-0.939-0.943-2.199-1.891-3.77-2.832l-1.213,16.111l18.461,18.529
				c1.26,1.256,1.889,2.787,1.887,4.584c0,1.752-0.627,3.254-1.885,4.512l-9.908,9.84c-1.213,1.219-2.738,1.811-4.58,1.787
				c-1.846-0.025-3.369-0.637-4.586-1.854l-18.395-18.461l-16.11,1.211c0.945,1.57,1.889,2.832,2.832,3.771l22.51,22.578
				c3.727,3.82,8.311,5.727,13.748,5.727c5.391,0,9.947-1.861,13.68-5.594l9.906-9.838c3.816-3.729,5.727-8.289,5.727-13.68
				c0.002-5.299-1.887-9.885-5.658-13.75L155.174,118.435z M155.174,118.435"/>
			<path fill="#7EC2D1" d="M183.951,110.146c-0.402-0.406-0.92-0.607-1.549-0.607l-21.564-0.002
				c-0.631,0.002-1.148,0.203-1.551,0.605c-0.404,0.408-0.607,0.924-0.605,1.555c-0.002,0.629,0.201,1.145,0.605,1.551
				c0.402,0.402,0.92,0.605,1.551,0.604l21.563,0.004c0.631-0.002,1.146-0.205,1.551-0.607c0.404-0.406,0.607-0.922,0.607-1.551
				S184.354,110.548,183.951,110.146L183.951,110.146z M183.951,110.146"/>
			<path fill="#7EC2D1" d="M98.232,88.714c1.301-1.211,2.824-1.816,4.58-1.816c1.797,0,3.322,0.631,4.584,1.885l18.395,18.465
				l16.11-1.215c-0.945-1.568-1.887-2.828-2.832-3.77l-22.51-22.574c-3.727-3.82-8.313-5.73-13.744-5.732
				c-5.393,0-9.951,1.867-13.684,5.594l-9.906,9.84c-3.818,3.729-5.727,8.291-5.727,13.678c0,5.303,1.885,9.889,5.662,13.748
				l22.643,22.646c0.943,0.941,2.201,1.887,3.771,2.834l1.215-16.18l-18.463-18.463c-1.262-1.256-1.887-2.789-1.889-4.586
				c0.002-1.746,0.627-3.252,1.887-4.51L98.232,88.714z M98.232,88.714"/>
			<path fill="#7EC2D1" d="M111.236,159.14c-0.629,0-1.146,0.201-1.551,0.605s-0.605,0.922-0.605,1.551v21.564
				c0,0.629,0.199,1.145,0.605,1.549c0.406,0.406,0.922,0.609,1.553,0.609c0.627,0,1.145-0.203,1.549-0.607
				c0.406-0.406,0.605-0.922,0.607-1.551l-0.004-21.564c0.004-0.629-0.199-1.146-0.604-1.549
				C112.382,159.341,111.865,159.14,111.236,159.14L111.236,159.14z M111.236,159.14"/>
		</g>
		<path fill="#7EC2D1" d="M79.107,116.806l5.32,5.346l9.082-9.188l-5.232-5.26c-1.262-1.256-1.889-2.785-1.889-4.578
			c0-1.891,0.74-3.531,2.223-4.924c0.137,0.137,0.553,0.566,1.248,1.285c0.693,0.715,1.18,1.199,1.449,1.445
			c0.271,0.25,0.695,0.586,1.281,1.014c0.582,0.428,1.154,0.719,1.717,0.877c0.561,0.158,1.178,0.234,1.852,0.234
			c1.799,0,3.326-0.629,4.586-1.887c1.256-1.256,1.885-2.781,1.887-4.58c0-0.674-0.082-1.291-0.234-1.854
			c-0.164-0.563-0.451-1.135-0.883-1.721c-0.426-0.582-0.762-1.01-1.008-1.279c-0.246-0.268-0.73-0.752-1.449-1.451
			c-0.721-0.693-1.146-1.109-1.281-1.242c1.35-1.439,2.965-2.156,4.852-2.158c1.795,0,3.326,0.625,4.584,1.887l9,9l8.881-9.451
			l-8.717-8.719c-3.777-3.771-8.357-5.658-13.748-5.656c-5.482-0.002-10.154,1.975-14.016,5.926l-5.934-5.926
			c3.955-3.867,5.936-8.561,5.934-14.09c0-5.391-1.865-9.949-5.6-13.68L69.13,32.228c-3.729-3.818-8.309-5.725-13.746-5.727
			c-5.393,0-9.951,1.863-13.68,5.592l-9.908,9.84c-3.816,3.732-5.727,8.285-5.727,13.68c0,5.393,1.885,9.973,5.662,13.748
			l14.014,14.021c3.777,3.77,8.355,5.662,13.748,5.662c5.482,0,10.154-1.98,14.021-5.936l5.928,5.936
			c-3.955,3.861-5.928,8.553-5.928,14.082C73.515,108.519,75.376,113.073,79.107,116.806z M73.515,64.778
			c-0.135-0.133-0.549-0.561-1.25-1.279c-0.693-0.717-1.178-1.201-1.447-1.447c-0.268-0.248-0.697-0.584-1.277-1.012
			c-0.586-0.43-1.16-0.717-1.721-0.877c-0.563-0.158-1.182-0.238-1.855-0.238c-1.797,0-3.324,0.631-4.578,1.891
			c-1.26,1.254-1.891,2.783-1.891,4.58c0,0.676,0.078,1.295,0.24,1.855c0.156,0.563,0.447,1.133,0.873,1.713
			c0.424,0.586,0.766,1.014,1.01,1.281c0.248,0.271,0.732,0.758,1.445,1.449c0.721,0.701,1.148,1.119,1.285,1.252
			c-1.348,1.389-2.969,2.086-4.854,2.086c-1.842,0-3.371-0.605-4.582-1.818L40.896,60.196c-1.258-1.256-1.885-2.789-1.885-4.584
			c0-1.748,0.625-3.256,1.885-4.512l9.908-9.842c1.299-1.213,2.83-1.82,4.58-1.82c1.797,0,3.328,0.633,4.582,1.889l13.883,13.951
			c1.26,1.256,1.887,2.785,1.887,4.578C75.736,61.747,74.994,63.388,73.515,64.778z"/>
		<path fill="#FFFFFF" d="M65.964,59.925c0.674,0,1.293,0.08,1.855,0.238c0.561,0.16,1.135,0.447,1.721,0.877
			c0.58,0.428,1.01,0.764,1.277,1.012c0.27,0.246,0.754,0.73,1.447,1.447c0.701,0.719,1.115,1.146,1.25,1.279
			c1.479-1.391,2.221-3.031,2.221-4.922c0-1.793-0.627-3.322-1.887-4.578L59.966,41.327c-1.254-1.256-2.785-1.889-4.582-1.889
			c-1.75,0-3.281,0.607-4.58,1.82l-9.908,9.842c-1.26,1.256-1.885,2.764-1.885,4.512c0,1.795,0.627,3.328,1.885,4.584l14.018,14.018
			c1.211,1.213,2.74,1.818,4.582,1.818c1.885,0,3.506-0.697,4.854-2.086c-0.137-0.133-0.564-0.551-1.285-1.252
			c-0.713-0.691-1.197-1.178-1.445-1.449c-0.244-0.268-0.586-0.695-1.01-1.281c-0.426-0.58-0.717-1.15-0.873-1.713
			c-0.162-0.561-0.24-1.18-0.24-1.855c0-1.797,0.631-3.326,1.891-4.58C62.64,60.556,64.167,59.925,65.964,59.925z"/>
		<path fill="#7EC2D1" d="M89.138,194.751l6.307-6.287l-6.361-6.289l-6.246,6.229c-0.869,0.871-1.928,1.307-3.17,1.307
			c-1.311,0-2.445-0.512-3.41-1.539c0.094-0.096,0.393-0.383,0.889-0.863c0.496-0.482,0.832-0.818,1.002-1.004
			c0.174-0.188,0.406-0.482,0.701-0.887c0.297-0.404,0.498-0.801,0.607-1.189c0.109-0.391,0.162-0.816,0.162-1.283
			c-0.002-1.244-0.436-2.305-1.307-3.176c-0.869-0.869-1.926-1.305-3.17-1.305c-0.467,0-0.895,0.055-1.285,0.162
			c-0.387,0.111-0.785,0.313-1.191,0.609c-0.402,0.297-0.697,0.529-0.887,0.699c-0.186,0.172-0.52,0.506-1.004,1.004
			c-0.48,0.498-0.768,0.795-0.859,0.889c-0.996-0.936-1.494-2.057-1.494-3.361c0-1.244,0.434-2.305,1.307-3.174l6.232-6.232
			l-6.545-6.15l-6.039,6.037c-2.611,2.613-3.916,5.787-3.916,9.521c0,3.793,1.367,7.029,4.104,9.703l-4.104,4.109
			c-2.678-2.738-5.928-4.109-9.756-4.109c-3.734,0-6.891,1.293-9.475,3.877l-9.658,9.613c-2.645,2.582-3.965,5.754-3.967,9.518
			c0,3.734,1.293,6.891,3.873,9.473l6.814,6.861c2.584,2.643,5.736,3.967,9.473,3.967c3.732,0,6.906-1.307,9.518-3.922l9.709-9.705
			c2.613-2.615,3.922-5.785,3.924-9.518c-0.002-3.797-1.373-7.033-4.109-9.711l4.109-4.104c2.672,2.736,5.924,4.104,9.752,4.104
			C83.402,198.624,86.556,197.335,89.138,194.751z M53.113,198.624c-0.094,0.094-0.389,0.383-0.887,0.865
			c-0.496,0.482-0.832,0.818-1.002,1.002c-0.172,0.186-0.404,0.482-0.699,0.885c-0.299,0.406-0.498,0.805-0.609,1.191
			c-0.109,0.391-0.164,0.818-0.164,1.285c0,1.244,0.436,2.303,1.309,3.17c0.867,0.873,1.928,1.309,3.172,1.311
			c0.467-0.002,0.896-0.055,1.283-0.168c0.391-0.105,0.785-0.309,1.188-0.604c0.406-0.295,0.703-0.531,0.889-0.699
			c0.188-0.17,0.523-0.508,1.002-1c0.486-0.5,0.773-0.797,0.867-0.891c0.963,0.934,1.443,2.057,1.445,3.359
			c-0.002,1.277-0.42,2.336-1.26,3.174l-9.707,9.707c-0.869,0.871-1.932,1.305-3.174,1.305c-1.211,0-2.256-0.432-3.123-1.305
			l-6.818-6.859c-0.838-0.902-1.26-1.963-1.26-3.174c0-1.244,0.438-2.305,1.309-3.174l9.66-9.611
			c0.869-0.875,1.93-1.307,3.172-1.307C51.013,197.087,52.15,197.601,53.113,198.624z"/>
		<path fill="#FFFFFF" d="M50.525,201.376c0.295-0.402,0.527-0.699,0.699-0.885c0.17-0.184,0.506-0.52,1.002-1.002
			c0.498-0.482,0.793-0.771,0.887-0.865c-0.963-1.023-2.1-1.537-3.408-1.537c-1.242,0-2.303,0.432-3.172,1.307l-9.66,9.611
			c-0.871,0.869-1.309,1.93-1.309,3.174c0,1.211,0.422,2.271,1.26,3.174l6.818,6.859c0.867,0.873,1.912,1.305,3.123,1.305
			c1.242,0,2.305-0.434,3.174-1.305l9.707-9.707c0.84-0.838,1.258-1.896,1.26-3.174c-0.002-1.303-0.482-2.426-1.445-3.359
			c-0.094,0.094-0.381,0.391-0.867,0.891c-0.479,0.492-0.814,0.83-1.002,1c-0.186,0.168-0.482,0.404-0.889,0.699
			c-0.402,0.295-0.797,0.498-1.188,0.604c-0.387,0.113-0.816,0.166-1.283,0.168c-1.244-0.002-2.305-0.438-3.172-1.311
			c-0.873-0.867-1.309-1.926-1.309-3.17c0-0.467,0.055-0.895,0.164-1.285C50.027,202.181,50.226,201.782,50.525,201.376z"/>
		<path fill="#7EC2D1" d="M169.35,63.2l-6.309,6.285l6.361,6.289l6.248-6.227c0.867-0.871,1.93-1.307,3.172-1.307
			c1.309,0,2.443,0.512,3.408,1.539c-0.096,0.096-0.393,0.381-0.891,0.865c-0.494,0.48-0.83,0.814-1,1.004
			c-0.174,0.188-0.404,0.48-0.701,0.885s-0.498,0.801-0.607,1.189s-0.162,0.816-0.164,1.283c0.002,1.244,0.438,2.303,1.309,3.176
			c0.869,0.869,1.926,1.305,3.17,1.305c0.467,0.002,0.895-0.057,1.283-0.16c0.391-0.113,0.787-0.316,1.191-0.611
			c0.404-0.297,0.699-0.529,0.887-0.699c0.184-0.17,0.521-0.506,1.006-1.004c0.48-0.498,0.768-0.795,0.859-0.887
			c0.996,0.934,1.494,2.053,1.494,3.359c0,1.242-0.434,2.305-1.305,3.176l-6.234,6.232l6.545,6.146l6.039-6.035
			c2.609-2.615,3.918-5.787,3.918-9.52c0-3.793-1.369-7.031-4.105-9.705l4.104-4.109c2.678,2.738,5.928,4.109,9.756,4.109
			c3.732,0,6.889-1.291,9.475-3.879l9.658-9.609c2.645-2.582,3.965-5.756,3.965-9.52c0.002-3.734-1.291-6.891-3.871-9.475
			l-6.814-6.859c-2.584-2.643-5.736-3.967-9.473-3.967c-3.732,0-6.906,1.307-9.52,3.922l-9.709,9.703
			c-2.611,2.615-3.92,5.787-3.922,9.521c0.002,3.797,1.371,7.031,4.109,9.709l-4.109,4.105c-2.674-2.736-5.922-4.105-9.75-4.105
			C175.088,59.327,171.932,60.616,169.35,63.2z M205.373,59.327c0.094-0.094,0.391-0.383,0.889-0.865
			c0.494-0.48,0.832-0.818,1.002-1.002c0.172-0.186,0.404-0.484,0.699-0.885c0.299-0.406,0.496-0.803,0.609-1.191
			c0.107-0.391,0.164-0.818,0.164-1.285c0-1.244-0.436-2.301-1.307-3.172s-1.93-1.307-3.176-1.309c-0.465,0-0.895,0.057-1.283,0.166
			c-0.387,0.107-0.783,0.309-1.186,0.605c-0.406,0.293-0.703,0.531-0.889,0.699c-0.188,0.17-0.525,0.508-1.002,1
			c-0.484,0.5-0.775,0.797-0.867,0.891c-0.963-0.934-1.443-2.057-1.443-3.359c0-1.277,0.418-2.334,1.258-3.174l9.707-9.707
			c0.869-0.871,1.93-1.305,3.174-1.305c1.211,0,2.254,0.432,3.123,1.305l6.816,6.861c0.84,0.9,1.26,1.959,1.26,3.172
			c0,1.244-0.438,2.305-1.309,3.174l-9.658,9.611c-0.869,0.873-1.93,1.307-3.172,1.307
			C207.473,60.864,206.338,60.351,205.373,59.327z"/>
		<path fill="#FFFFFF" d="M207.963,56.575c-0.295,0.4-0.527,0.699-0.699,0.885c-0.17,0.184-0.508,0.521-1.002,1.002
			c-0.498,0.482-0.795,0.771-0.889,0.865c0.965,1.023,2.1,1.537,3.41,1.537c1.242,0,2.303-0.434,3.172-1.307l9.658-9.611
			c0.871-0.869,1.309-1.93,1.309-3.174c0-1.213-0.42-2.271-1.26-3.172l-6.816-6.861c-0.869-0.873-1.912-1.305-3.123-1.305
			c-1.244,0-2.305,0.434-3.174,1.305l-9.707,9.707c-0.84,0.84-1.258,1.896-1.258,3.174c0,1.303,0.48,2.426,1.443,3.359
			c0.092-0.094,0.383-0.391,0.867-0.891c0.477-0.492,0.814-0.83,1.002-1c0.186-0.168,0.482-0.406,0.889-0.699
			c0.402-0.297,0.799-0.498,1.186-0.605c0.389-0.109,0.818-0.166,1.283-0.166c1.246,0.002,2.305,0.438,3.176,1.309
			s1.307,1.928,1.307,3.172c0,0.467-0.057,0.895-0.164,1.285C208.459,55.772,208.262,56.169,207.963,56.575z"/>
		<path fill="#7EC2D1" d="M177.516,140.638l-5.318-5.346l-9.082,9.186l5.234,5.26c1.258,1.258,1.885,2.785,1.885,4.58
			c0,1.891-0.738,3.531-2.223,4.924c-0.135-0.137-0.553-0.566-1.246-1.285c-0.695-0.715-1.18-1.199-1.451-1.445
			c-0.27-0.248-0.693-0.586-1.279-1.014c-0.582-0.43-1.154-0.719-1.715-0.877c-0.563-0.158-1.182-0.234-1.855-0.234
			c-1.797,0-3.324,0.631-4.584,1.887c-1.256,1.256-1.887,2.783-1.889,4.58c0.002,0.674,0.082,1.293,0.238,1.854
			c0.16,0.561,0.449,1.135,0.879,1.719c0.428,0.584,0.762,1.012,1.01,1.283c0.246,0.266,0.732,0.75,1.451,1.449
			c0.717,0.695,1.145,1.109,1.279,1.242c-1.35,1.439-2.965,2.158-4.852,2.158c-1.795,0-3.326-0.627-4.584-1.887l-9.002-9
			l-8.879,9.451l8.715,8.719c3.779,3.771,8.357,5.658,13.75,5.658c5.48,0,10.154-1.977,14.016-5.928l5.932,5.928
			c-3.955,3.865-5.932,8.559-5.932,14.09c-0.002,5.389,1.865,9.947,5.598,13.678l13.881,13.949
			c3.729,3.818,8.314,5.729,13.748,5.729c5.391,0,9.949-1.867,13.68-5.594l9.908-9.84c3.814-3.732,5.727-8.287,5.727-13.68
			c0-5.391-1.887-9.975-5.664-13.748l-14.012-14.021c-3.779-3.771-8.357-5.66-13.75-5.66c-5.482,0-10.152,1.979-14.02,5.932
			l-5.928-5.932c3.953-3.861,5.928-8.555,5.928-14.084C183.109,148.925,181.246,144.368,177.516,140.638z M183.109,192.663
			c0.135,0.135,0.553,0.563,1.248,1.281c0.695,0.717,1.182,1.203,1.447,1.447c0.27,0.248,0.699,0.584,1.279,1.014
			c0.584,0.426,1.158,0.717,1.723,0.877c0.559,0.154,1.178,0.238,1.852,0.236c1.797,0,3.324-0.631,4.582-1.891
			c1.258-1.256,1.889-2.783,1.889-4.582c0-0.672-0.08-1.293-0.238-1.854c-0.156-0.561-0.449-1.133-0.875-1.713
			c-0.426-0.586-0.768-1.016-1.01-1.281c-0.248-0.271-0.732-0.758-1.445-1.449c-0.721-0.701-1.15-1.117-1.285-1.25
			c1.348-1.393,2.969-2.088,4.854-2.088c1.844,0,3.369,0.607,4.58,1.818l14.02,14.018c1.256,1.254,1.883,2.787,1.885,4.584
			c0,1.748-0.625,3.256-1.885,4.51l-9.906,9.846c-1.303,1.211-2.832,1.818-4.584,1.818c-1.795-0.002-3.324-0.633-4.58-1.889
			l-13.883-13.951c-1.26-1.256-1.887-2.785-1.887-4.58C180.889,195.696,181.629,194.056,183.109,192.663z"/>
		<path fill="#FFFFFF" d="M196.658,216.116c1.256,1.256,2.785,1.887,4.58,1.889c1.752,0,3.281-0.607,4.584-1.818l9.906-9.846
			c1.26-1.254,1.885-2.762,1.885-4.51c-0.002-1.797-0.629-3.33-1.885-4.584l-14.02-14.018c-1.211-1.211-2.736-1.818-4.58-1.818
			c-1.885,0-3.506,0.695-4.854,2.088c0.135,0.133,0.564,0.549,1.285,1.25c0.713,0.691,1.197,1.178,1.445,1.449
			c0.242,0.266,0.584,0.695,1.01,1.281c0.426,0.58,0.719,1.152,0.875,1.713c0.158,0.561,0.238,1.182,0.238,1.854
			c0,1.799-0.631,3.326-1.889,4.582c-1.258,1.26-2.785,1.891-4.582,1.891c-0.674,0.002-1.293-0.082-1.852-0.236
			c-0.564-0.16-1.139-0.451-1.723-0.877c-0.58-0.43-1.01-0.766-1.279-1.014c-0.266-0.244-0.752-0.73-1.447-1.447
			c-0.695-0.719-1.113-1.146-1.248-1.281c-1.48,1.393-2.221,3.033-2.221,4.922c0,1.795,0.627,3.324,1.887,4.58L196.658,216.116z"/>
	</g>
</g>
</svg>
