<?xml version="1.0" encoding="utf-8"?>
<!-- Generator: Adobe Illustrator 16.0.0, SVG Export Plug-In . SVG Version: 6.00 Build 0)  -->
<!DOCTYPE svg PUBLIC "-//W3C//DTD SVG 1.1//EN" "http://www.w3.org/Graphics/SVG/1.1/DTD/svg11.dtd">
<svg version="1.1" id="Layer_1" xmlns="http://www.w3.org/2000/svg" xmlns:xlink="http://www.w3.org/1999/xlink" x="0px" y="0px"
	 width="257.95px" height="257.95px" viewBox="0 0 257.95 257.95" enable-background="new 0 0 257.95 257.95" xml:space="preserve">
<g>
	<g opacity="0.5">
		<path fill="#FFFFFF" d="M14.919,255.952c-7.125,0-12.92-5.796-12.92-12.92V14.917c0-7.124,5.796-12.92,12.92-12.92h228.112
			c7.124,0,12.92,5.796,12.92,12.92v228.115c0,7.124-5.796,12.92-12.92,12.92H14.919z"/>
		<path fill="#0794A0" d="M243.031,3.997c6.021,0,10.92,4.898,10.92,10.92v228.115c0,6.021-4.898,10.92-10.92,10.92H14.919
			c-6.021,0-10.92-4.898-10.92-10.92V14.917c0-6.021,4.899-10.92,10.92-10.92H243.031 M243.031-0.003H14.919
			c-8.207,0-14.92,6.714-14.92,14.92v228.115c0,8.206,6.714,14.92,14.92,14.92h228.112c8.206,0,14.92-6.714,14.92-14.92V14.917
			C257.951,6.711,251.237-0.003,243.031-0.003L243.031-0.003z"/>
	</g>
	<g>
		<path fill="#FFFFFF" d="M34.34,180.444c-0.313,0-0.584,0.115-0.813,0.342c-0.229,0.229-0.342,0.5-0.342,0.813v30.031
			c0,0.313,0.113,0.584,0.342,0.813c0.229,0.227,0.5,0.342,0.813,0.342h57.752c0.313,0,0.584-0.115,0.811-0.342
			c0.23-0.229,0.344-0.5,0.344-0.813v-30.031c0-0.313-0.113-0.584-0.344-0.813c-0.227-0.227-0.498-0.342-0.811-0.342H34.34z"/>
		<path fill="#7EC2D1" d="M188.984,79.271c-4.053-5.074-9.234-8.365-15.551-9.865c1.994-3.012,2.99-6.365,2.99-10.053
			c0-5.146-1.824-9.541-5.465-13.182c-3.639-3.641-8.035-5.461-13.18-5.461c-4.615,0-8.643,1.502-12.086,4.514
			c-2.865-6.992-7.443-12.596-13.732-16.82c-6.285-4.227-13.214-6.34-20.791-6.34c-10.295,0-19.084,3.646-26.365,10.926
			c-7.283,7.281-10.922,16.07-10.922,26.363c0,0.633,0.047,1.676,0.145,3.135c-5.73,2.664-10.293,6.672-13.695,12.016
			c-3.396,5.338-5.094,11.164-5.094,17.477c0,8.982,3.193,16.668,9.574,23.051c6.389,6.385,14.068,9.58,23.049,9.58h79.244
			c7.717,0,14.307-2.734,19.771-8.197c5.459-5.461,8.193-12.051,8.193-19.771C195.07,90.138,193.041,84.345,188.984,79.271z"/>
		<path fill="#FFFFFF" d="M132.748,61.114c-0.408-0.408-0.887-0.611-1.443-0.611H119c-0.557,0-1.037,0.203-1.445,0.611
			c-0.402,0.402-0.605,0.887-0.605,1.439V85.12h-14.361c-0.551,0-1.033,0.199-1.441,0.605c-0.406,0.406-0.605,0.889-0.605,1.441
			c0,0.6,0.189,1.092,0.576,1.475l22.561,22.563c0.385,0.389,0.877,0.58,1.475,0.58s1.088-0.191,1.477-0.58l22.496-22.496
			c0.428-0.516,0.641-1.025,0.641-1.541c0-0.596-0.189-1.088-0.574-1.475c-0.387-0.381-0.879-0.572-1.477-0.572h-14.357V62.554
			C133.357,62.001,133.154,61.517,132.748,61.114z"/>
		<g>
			<path fill="#7EC2D1" d="M96.17,177.519c-1.131-1.129-2.488-1.695-4.078-1.695H34.34c-1.588,0-2.947,0.566-4.08,1.695
				c-1.131,1.131-1.695,2.492-1.695,4.08v39.271c0,1.588,0.564,2.949,1.695,4.078c1.133,1.133,2.492,1.699,4.08,1.699h19.637
				c0,0.912-0.193,1.85-0.578,2.813c-0.387,0.963-0.77,1.805-1.154,2.527c-0.387,0.723-0.578,1.25-0.578,1.588
				c0,0.625,0.229,1.168,0.686,1.625c0.455,0.455,1,0.686,1.625,0.686h18.48c0.625,0,1.168-0.23,1.623-0.686
				c0.459-0.457,0.688-1,0.688-1.625c0-0.311-0.193-0.836-0.578-1.57c-0.385-0.732-0.77-1.588-1.154-2.563
				c-0.387-0.975-0.578-1.906-0.578-2.795h19.635c1.59,0,2.947-0.566,4.078-1.699c1.133-1.129,1.697-2.49,1.697-4.078v-39.271
				C97.868,180.011,97.303,178.649,96.17,177.519L96.17,177.519z M93.247,211.63c0,0.313-0.113,0.584-0.344,0.813
				c-0.227,0.227-0.498,0.342-0.811,0.342H34.34c-0.313,0-0.584-0.115-0.813-0.342c-0.229-0.229-0.342-0.5-0.342-0.813v-30.031
				c0-0.313,0.113-0.584,0.342-0.813c0.229-0.227,0.5-0.342,0.813-0.342h57.752c0.313,0,0.584,0.115,0.811,0.342
				c0.23,0.229,0.344,0.5,0.344,0.813V211.63z M93.247,211.63"/>
		</g>
		<path fill="#7EC2D1" d="M163.125,220.935h47.932c1.939,0,3.598-0.691,4.979-2.07c1.381-1.381,2.07-3.043,2.07-4.98v-31.012
			c0-1.941-0.689-3.6-2.07-4.979c-1.381-1.383-3.039-2.07-4.979-2.07h-47.932c-1.938,0-3.596,0.688-4.977,2.07
			c-1.381,1.379-2.068,3.037-2.068,4.979v31.012c0,1.938,0.688,3.6,2.068,4.98C159.529,220.243,161.188,220.935,163.125,220.935
			L163.125,220.935z M161.715,182.872c0-0.383,0.139-0.713,0.418-0.992c0.281-0.277,0.611-0.418,0.992-0.418h47.93
			c0.385,0,0.713,0.139,0.994,0.418c0.277,0.279,0.418,0.609,0.418,0.992v31.012c0,0.385-0.141,0.713-0.418,0.994
			c-0.281,0.277-0.609,0.416-0.994,0.416h-47.93c-0.381,0-0.711-0.139-0.992-0.416c-0.279-0.281-0.418-0.609-0.418-0.994V182.872z
			 M161.715,182.872"/>
		<path fill="#FFFFFF" d="M163.125,181.462c-0.381,0-0.711,0.141-0.992,0.418c-0.279,0.279-0.418,0.609-0.418,0.992v31.012
			c0,0.385,0.139,0.713,0.418,0.994c0.281,0.277,0.611,0.416,0.992,0.416h47.93c0.385,0,0.713-0.139,0.994-0.416
			c0.277-0.281,0.418-0.609,0.418-0.994v-31.012c0-0.383-0.141-0.713-0.418-0.992c-0.281-0.279-0.609-0.418-0.994-0.418H163.125z"/>
		<path fill="#7EC2D1" d="M222.334,223.753h-77.535v4.23c0,1.176,0.689,2.174,2.07,2.992c1.379,0.826,3.041,1.234,4.98,1.234h70.484
			c1.939,0,3.6-0.408,4.977-1.234c1.381-0.818,2.074-1.816,2.074-2.992v-4.23H222.334z M190.615,227.983h-7.047
			c-0.471,0-0.705-0.238-0.705-0.705c0-0.471,0.234-0.707,0.705-0.707h7.047c0.471,0,0.707,0.236,0.707,0.707
			C191.32,227.749,191.086,227.983,190.615,227.983L190.615,227.983z M190.615,227.983"/>
		
			<line fill="none" stroke="#7EC2D1" stroke-width="8.8483" stroke-miterlimit="10" x1="125.153" y1="129.075" x2="125.153" y2="154.392"/>
		<g>
			<path fill="none" stroke="#7EC2D1" stroke-width="8.8483" stroke-miterlimit="10" d="M63.217,171.72c0,0,0-3.898,0-8.664
				s4.703-8.664,10.451-8.664h102.973c5.748,0,10.451,3.595,10.451,7.988s0,7.988,0,7.988"/>
		</g>
	</g>
</g>
</svg>
