<?xml version="1.0" encoding="utf-8"?>
<!-- Generator: Adobe Illustrator 16.0.0, SVG Export Plug-In . SVG Version: 6.00 Build 0)  -->
<!DOCTYPE svg PUBLIC "-//W3C//DTD SVG 1.1//EN" "http://www.w3.org/Graphics/SVG/1.1/DTD/svg11.dtd">
<svg version="1.1" id="Layer_1" xmlns="http://www.w3.org/2000/svg" xmlns:xlink="http://www.w3.org/1999/xlink" x="0px" y="0px"
	 width="1600px" height="900px" viewBox="0 0 1600 900" enable-background="new 0 0 1600 900" xml:space="preserve">
<path fill="#008F9B" d="M793.985,300.001l15.666-2.646v128.342c-3.396,1.009-7.736,2.016-13.021,3.02
	c-5.287,1.005-11.451,1.51-18.497,1.51c-6.292,0-12.021-1.068-17.171-3.209c-5.168-2.137-9.568-5.189-13.219-9.154
	c-3.647-3.96-6.483-8.774-8.49-14.437c-2.011-5.664-3.024-12.015-3.024-19.062c0-6.795,0.856-12.99,2.552-18.592
	c1.7-5.594,4.183-10.408,7.456-14.435c3.271-4.028,7.199-7.176,11.794-9.438c4.594-2.265,9.841-3.398,15.76-3.398
	c4.65,0,8.744,0.567,12.269,1.7c3.521,1.131,6.165,2.33,7.926,3.586V300.001z M793.985,359.073c-1.761-1.633-4.34-3.177-7.737-4.623
	c-3.396-1.446-6.925-2.17-10.569-2.17c-4.149,0-7.706,0.822-10.663,2.455c-2.96,1.636-5.375,3.867-7.265,6.699
	c-1.887,2.831-3.277,6.229-4.153,10.19c-0.882,3.964-1.322,8.209-1.322,12.741c0,10.19,2.387,18.054,7.175,23.591
	c4.775,5.537,11.011,8.304,18.684,8.304c3.897,0,7.201-0.189,9.909-0.568c2.704-0.379,4.688-0.751,5.942-1.132V359.073z"/>
<path fill="#008F9B" d="M865.895,338.502c6.539,0,12.048,0.82,16.514,2.452c4.46,1.639,8.083,3.903,10.854,6.795
	c2.765,2.899,4.715,6.418,5.85,10.57c1.131,4.153,1.697,8.684,1.697,13.589v54.733c-3.649,0.632-8.46,1.386-14.438,2.265
	c-5.981,0.879-12.112,1.322-18.4,1.322c-4.784,0-9.435-0.41-13.969-1.229c-4.526-0.817-8.559-2.264-12.075-4.341
	c-3.525-2.075-6.357-4.935-8.496-8.586c-2.139-3.648-3.207-8.305-3.207-13.964c0-5.032,1.1-9.278,3.302-12.742
	c2.201-3.458,5.033-6.259,8.493-8.398c3.462-2.136,7.421-3.679,11.893-4.625c4.464-0.942,8.963-1.415,13.493-1.415
	c6.16,0,12.204,0.694,18.118,2.078v-4.343c0-2.643-0.282-5.189-0.85-7.642c-0.566-2.455-1.636-4.687-3.213-6.702
	c-1.569-2.01-3.706-3.614-6.408-4.813c-2.708-1.193-6.201-1.794-10.479-1.794c-5.408,0-10.134,0.379-14.155,1.134
	c-4.026,0.753-7.107,1.511-9.248,2.264l-1.885-12.833c2.137-1.003,5.69-1.887,10.659-2.641
	C854.921,338.881,860.235,338.502,865.895,338.502z M867.404,417.015c3.902,0,7.388-0.123,10.474-0.376
	c3.085-0.251,5.632-0.566,7.645-0.945V389.65c-2.013-0.627-4.439-1.132-7.264-1.509c-2.832-0.38-5.825-0.567-8.969-0.567
	c-2.895,0-5.727,0.22-8.492,0.661c-2.767,0.443-5.219,1.228-7.364,2.359c-2.139,1.134-3.892,2.613-5.278,4.434
	c-1.387,1.826-2.075,4.125-2.075,6.89c0,5.663,1.91,9.595,5.76,11.797C855.675,415.915,860.865,417.015,867.404,417.015z"/>
<path fill="#008F9B" d="M955.729,340.579h36.994v13.02h-36.994v40.77c0,4.407,0.313,7.991,0.942,10.755
	c0.628,2.768,1.667,5.004,3.118,6.703c1.443,1.695,3.308,2.86,5.568,3.488c2.264,0.633,5.028,0.947,8.303,0.947
	c4.532,0,8.177-0.379,10.95-1.132c2.767-0.756,5.408-1.763,7.924-3.02l2.263,13.209c-1.76,0.757-4.561,1.764-8.397,3.021
	c-3.842,1.256-8.584,1.888-14.247,1.888c-6.546,0-11.894-0.758-16.039-2.265c-4.155-1.51-7.397-3.774-9.731-6.795
	c-2.322-3.021-3.929-6.761-4.807-11.227c-0.882-4.468-1.322-9.658-1.322-15.572v-40.77h-18.492v-13.02h18.492v-24.538l15.476-2.639
	V340.579z"/>
<path fill="#008F9B" d="M1047.08,338.502c6.539,0,12.046,0.82,16.516,2.452c4.46,1.639,8.077,3.903,10.849,6.795
	c2.769,2.899,4.719,6.418,5.854,10.57c1.127,4.153,1.697,8.684,1.697,13.589v54.733c-3.653,0.632-8.463,1.386-14.438,2.265
	c-5.981,0.879-12.112,1.322-18.398,1.322c-4.786,0-9.44-0.41-13.971-1.229c-4.528-0.817-8.559-2.264-12.078-4.341
	c-3.521-2.075-6.353-4.935-8.491-8.586c-2.143-3.648-3.209-8.305-3.209-13.964c0-5.032,1.096-9.278,3.306-12.742
	c2.197-3.458,5.029-6.259,8.489-8.398c3.458-2.136,7.417-3.679,11.887-4.625c4.47-0.942,8.967-1.415,13.497-1.415
	c6.165,0,12.205,0.694,18.12,2.078v-4.343c0-2.643-0.28-5.189-0.85-7.642c-0.562-2.455-1.636-4.687-3.211-6.702
	c-1.571-2.01-3.712-3.614-6.41-4.813c-2.712-1.193-6.204-1.794-10.481-1.794c-5.408,0-10.125,0.379-14.154,1.134
	c-4.021,0.753-7.111,1.511-9.244,2.264l-1.887-12.833c2.134-1.003,5.69-1.887,10.655-2.641
	C1036.103,338.881,1041.416,338.502,1047.08,338.502z M1048.588,417.015c3.9,0,7.392-0.123,10.474-0.376
	c3.087-0.251,5.632-0.566,7.646-0.945V389.65c-2.015-0.627-4.436-1.132-7.266-1.509c-2.832-0.38-5.823-0.567-8.967-0.567
	c-2.895,0-5.723,0.22-8.492,0.661c-2.764,0.443-5.226,1.228-7.364,2.359c-2.138,1.134-3.896,2.613-5.282,4.434
	c-1.387,1.826-2.078,4.125-2.078,6.89c0,5.663,1.919,9.595,5.759,11.797C1036.854,415.915,1042.047,417.015,1048.588,417.015z"/>
<path fill="#7EC2D1" d="M736.229,520.824c0-7.928,1.257-14.785,3.776-20.572c2.518-5.786,5.975-10.57,10.377-14.344
	c4.404-3.773,9.532-6.572,15.383-8.398c5.852-1.822,12.112-2.736,18.779-2.736c4.279,0,8.529,0.281,12.742,0.852
	c4.21,0.563,8.711,1.601,13.493,3.111l-3.584,13.402c-4.151-1.512-7.96-2.484-11.418-2.928c-3.468-0.439-6.954-0.659-10.479-0.659
	c-4.527,0-8.808,0.597-12.833,1.792c-4.024,1.195-7.516,3.084-10.476,5.658c-2.953,2.585-5.313,5.918-7.075,10.006
	c-1.764,4.088-2.64,9.031-2.64,14.816c0,5.538,0.812,10.285,2.451,14.25c1.636,3.963,3.934,7.234,6.889,9.813
	c2.954,2.579,6.515,4.5,10.662,5.757c4.155,1.26,8.744,1.889,13.778,1.889c4.025,0,7.895-0.221,11.606-0.663
	c3.715-0.44,7.772-1.414,12.175-2.925l2.263,13.022c-4.407,1.638-8.868,2.8-13.397,3.493c-4.53,0.689-9.438,1.037-14.721,1.037
	c-7.048,0-13.495-0.976-19.347-2.925c-5.851-1.952-10.885-4.813-15.101-8.589c-4.212-3.773-7.487-8.522-9.812-14.25
	C737.395,535.01,736.229,528.372,736.229,520.824z"/>
<path fill="#7EC2D1" d="M866.454,474.773c11.83,0,20.952,3.678,27.37,11.039c6.417,7.362,9.624,18.531,9.624,33.5v5.473h-62.655
	c0.626,9.063,3.615,15.949,8.963,20.669c5.341,4.718,12.865,7.079,22.552,7.079c5.534,0,10.258-0.439,14.151-1.322
	c3.904-0.879,6.864-1.823,8.875-2.834l2.075,13.213c-1.887,1.013-5.282,2.076-10.193,3.208c-4.908,1.132-10.446,1.7-16.608,1.7
	c-7.549,0-14.187-1.165-19.905-3.492c-5.73-2.324-10.477-5.502-14.256-9.532c-3.768-4.024-6.602-8.837-8.489-14.437
	c-1.893-5.598-2.833-11.67-2.833-18.213c0-7.801,1.193-14.594,3.586-20.383c2.387-5.785,5.537-10.568,9.438-14.346
	c3.9-3.776,8.306-6.605,13.207-8.491C856.26,475.717,861.295,474.773,866.454,474.773z M887.593,512.143
	c0-7.422-1.953-13.307-5.849-17.646c-3.902-4.343-9.061-6.513-15.477-6.513c-3.646,0-6.954,0.693-9.909,2.074
	c-2.956,1.386-5.509,3.209-7.644,5.474c-2.143,2.265-3.837,4.847-5.094,7.738c-1.262,2.897-2.074,5.851-2.455,8.872H887.593z"/>
<path fill="#7EC2D1" d="M921.568,479.303c5.66-1.383,11.288-2.453,16.887-3.209c5.605-0.754,10.854-1.131,15.764-1.131
	c11.702,0,20.542,3.018,26.518,9.059c5.972,6.037,8.961,15.73,8.961,29.064v51.337h-15.475v-48.507
	c0-5.66-0.505-10.254-1.509-13.775c-1.01-3.521-2.424-6.26-4.246-8.215c-1.826-1.945-4.025-3.299-6.605-4.053
	c-2.578-0.757-5.379-1.135-8.399-1.135c-2.514,0-5.19,0.16-8.022,0.473s-5.565,0.723-8.209,1.229v73.983h-15.663V479.303z"/>
<path fill="#7EC2D1" d="M1044.621,476.85h36.994v13.023h-36.994v40.768c0,4.404,0.31,7.99,0.948,10.754
	c0.625,2.769,1.662,5.004,3.109,6.703c1.445,1.695,3.305,2.861,5.571,3.49c2.264,0.631,5.027,0.945,8.303,0.945
	c4.528,0,8.18-0.379,10.95-1.135c2.763-0.754,5.404-1.758,7.918-3.021l2.269,13.213c-1.764,0.756-4.563,1.765-8.397,3.021
	c-3.837,1.255-8.588,1.887-14.249,1.887c-6.55,0-11.892-0.754-16.047-2.265c-4.151-1.509-7.394-3.776-9.717-6.792
	c-2.327-3.021-3.93-6.764-4.813-11.234c-0.88-4.463-1.323-9.654-1.323-15.566v-40.768h-18.496V476.85h18.496v-24.536l15.479-2.643
	V476.85z"/>
<path fill="#7EC2D1" d="M1135.972,474.773c6.539,0,12.046,0.818,16.514,2.452c4.462,1.639,8.084,3.901,10.851,6.796
	c2.765,2.896,4.719,6.418,5.848,10.568c1.138,4.152,1.703,8.681,1.703,13.588v54.734c-3.653,0.63-8.469,1.385-14.436,2.265
	c-5.984,0.878-12.115,1.321-18.403,1.321c-4.784,0-9.442-0.41-13.969-1.229c-4.53-0.819-8.559-2.264-12.079-4.34
	c-3.523-2.075-6.352-4.937-8.496-8.588c-2.137-3.646-3.209-8.305-3.209-13.965c0-5.033,1.102-9.279,3.306-12.74
	c2.197-3.461,5.029-6.259,8.491-8.397c3.462-2.138,7.425-3.681,11.897-4.625c4.461-0.941,8.96-1.415,13.489-1.415
	c6.162,0,12.204,0.693,18.12,2.075v-4.341c0-2.644-0.285-5.191-0.853-7.642c-0.563-2.456-1.632-4.688-3.201-6.702
	c-1.579-2.012-3.722-3.615-6.422-4.813c-2.712-1.194-6.199-1.793-10.473-1.793c-5.412,0-10.13,0.379-14.157,1.132
	c-4.028,0.757-7.107,1.511-9.25,2.265l-1.889-12.834c2.141-1.004,5.694-1.887,10.663-2.643
	C1124.99,475.15,1130.307,474.773,1135.972,474.773z M1137.479,553.287c3.894,0,7.392-0.125,10.477-0.379
	c3.081-0.25,5.63-0.566,7.644-0.943V525.92c-2.014-0.627-4.437-1.135-7.267-1.508c-2.83-0.379-5.821-0.568-8.965-0.568
	c-2.898,0-5.725,0.222-8.493,0.66c-2.77,0.442-5.218,1.226-7.358,2.361c-2.145,1.132-3.906,2.609-5.287,4.434
	c-1.387,1.824-2.075,4.125-2.075,6.889c0,5.66,1.918,9.596,5.754,11.797C1125.744,552.186,1130.937,553.287,1137.479,553.287z"/>
<path fill="#7EC2D1" d="M1200.142,564.423v-82.854c12.832-4.404,25.789-6.605,38.88-6.605c4.023,0,7.858,0.157,11.506,0.473
	c3.648,0.314,7.676,0.973,12.085,1.981l-2.834,13.776c-4.031-1.135-7.586-1.855-10.659-2.17c-3.085-0.314-6.453-0.472-10.098-0.472
	c-7.677,0-15.481,1.069-23.409,3.208v72.663H1200.142z"/>
<path fill="#7EC2D1" d="M1286.135,554.438c0,2.629-0.873,4.947-2.62,6.962c-1.756,2.015-4.076,3.023-6.969,3.023
	c-2.979,0-5.346-1.009-7.092-3.023c-1.75-2.015-2.627-4.333-2.627-6.962c0-2.713,0.877-5.078,2.627-7.093
	c1.746-2.015,4.113-3.021,7.092-3.021c2.893,0,5.213,1.006,6.969,3.021C1285.262,549.359,1286.135,551.725,1286.135,554.438z"/>
<path fill="#7EC2D1" d="M1321.308,489.873h-25.289V476.85h40.762v53.791c0,8.681,1.193,14.498,3.588,17.457
	c2.383,2.957,5.976,4.436,10.755,4.436c3.649,0,7.02-0.439,10.101-1.322c3.083-0.879,5.504-1.823,7.264-2.834l2.269,13.213
	c-0.756,0.378-1.824,0.851-3.207,1.416c-1.386,0.567-2.991,1.102-4.819,1.605c-1.82,0.5-3.837,0.94-6.035,1.318
	c-2.203,0.379-4.501,0.568-6.887,0.568c-5.537,0-10.133-0.754-13.78-2.265c-3.65-1.509-6.579-3.776-8.778-6.792
	c-2.203-3.021-3.743-6.764-4.625-11.234c-0.881-4.463-1.316-9.654-1.316-15.566V489.873z"/>
<path fill="#7EC2D1" d="M1461.349,520.635c0,6.92-0.974,13.184-2.931,18.779c-1.948,5.602-4.685,10.412-8.2,14.439
	c-3.537,4.029-7.743,7.144-12.653,9.341c-4.911,2.197-10.255,3.304-16.04,3.304c-5.662,0-10.919-1.106-15.76-3.304
	c-4.845-2.197-9.033-5.312-12.555-9.341c-3.521-4.027-6.255-8.838-8.211-14.439c-1.945-5.596-2.924-11.859-2.924-18.779
	c0-6.918,0.979-13.211,2.924-18.873c1.956-5.662,4.689-10.475,8.211-14.438c3.521-3.964,7.71-7.045,12.555-9.248
	c4.841-2.201,10.098-3.303,15.76-3.303c5.785,0,11.129,1.102,16.04,3.303c4.91,2.203,9.116,5.284,12.653,9.248
	c3.516,3.963,6.252,8.775,8.2,14.438C1460.375,507.424,1461.349,513.717,1461.349,520.635z M1445.304,520.635
	c0-9.938-2.141-17.771-6.417-23.498c-4.279-5.723-10.067-8.585-17.362-8.585c-7.174,0-12.863,2.862-17.084,8.585
	c-4.212,5.727-6.318,13.561-6.318,23.498c0,9.814,2.106,17.584,6.318,23.31c4.221,5.726,9.91,8.589,17.084,8.589
	c7.295,0,13.083-2.863,17.362-8.589C1443.163,538.219,1445.304,530.449,1445.304,520.635z"/>
<path fill="#008F9B" d="M1337.532,450.704c0,6.867-5.566,12.435-12.442,12.435c-6.868,0-12.43-5.568-12.43-12.435
	c0-6.87,5.562-12.438,12.43-12.438C1331.966,438.265,1337.532,443.833,1337.532,450.704z"/>
<polygon fill="#008F9B" points="495.193,431.245 512.554,448.606 547.488,413.67 542.499,408.677 530.129,396.309 492.369,358.55 
	479.994,346.174 475,341.181 440.066,376.115 457.431,393.48 "/>
<polygon fill="#008F9B" points="495.188,544.328 512.554,561.688 547.492,526.756 545.477,524.738 530.127,509.389 492.359,471.624 
	482.974,462.24 475,454.265 440.066,489.2 457.424,506.561 "/>
<polygon fill="#008F9B" points="434.405,526.752 429.413,521.758 417.047,509.389 379.283,471.628 368.141,460.483 368.14,460.483 
	366.911,459.26 361.92,454.266 326.985,489.2 344.347,506.561 382.111,544.327 399.469,561.687 "/>
<polygon fill="#7EC2D1" points="644.623,502.318 658.774,488.166 658.774,423.958 628.462,454.265 612.516,470.213 "/>
<polygon fill="#7EC2D1" points="553.149,529.585 522.212,560.516 586.425,560.516 601.201,545.74 569.097,513.633 "/>
<polygon fill="#7EC2D1" points="658.807,375.054 658.807,342.353 627.289,342.353 612.514,357.127 644.623,389.238 "/>
<polygon fill="#7EC2D1" points="499.431,470.21 531.542,502.318 547.488,486.372 585.254,448.607 601.201,432.659 569.095,400.551 
	553.145,416.499 515.383,454.263 "/>
<polygon fill="#7EC2D1" points="440.062,529.58 409.126,560.516 473.344,560.516 488.117,545.742 456.01,513.632 "/>
<polygon fill="#7EC2D1" points="547.488,373.292 578.428,342.353 514.214,342.353 499.439,357.135 531.543,389.238 "/>
<polygon fill="#7EC2D1" points="456.017,400.552 440.067,416.502 402.305,454.265 386.354,470.214 418.461,502.318 434.41,486.371 
	472.172,448.607 488.123,432.659 "/>
<polygon fill="#7EC2D1" points="434.41,373.286 465.344,342.353 401.125,342.353 386.347,357.128 418.459,389.238 "/>
<polygon fill="#008F9B" points="643.209,509.389 605.445,471.628 593.079,459.26 588.082,454.264 553.145,489.2 570.511,506.561 
	608.271,544.327 626.462,562.516 660.807,562.516 660.807,526.988 655.577,521.759 "/>
<polygon fill="#008F9B" points="321.32,413.67 174.068,266.416 139.129,301.348 286.391,448.603 "/>
<rect x="263.77" y="499.652" transform="matrix(-0.7071 -0.7071 0.7071 -0.7071 63.1987 1230.5852)" fill="#7EC2D1" width="45.405" height="205.103"/>
<polygon fill="#7EC2D1" points="342.926,400.551 326.978,416.499 289.219,454.259 141.357,602.117 173.47,634.227 321.328,486.371 
	359.092,448.607 375.037,432.659 "/>
<polygon fill="#008F9B" points="417.045,396.309 379.276,358.542 366.911,346.174 230.607,209.871 195.67,244.807 344.34,393.48 
	382.107,431.244 394.476,443.613 399.476,448.608 434.41,413.674 "/>
<polygon fill="#008F9B" points="643.209,396.309 605.443,358.542 596.054,349.153 588.082,341.184 553.145,376.12 570.509,393.48 
	608.271,431.245 625.634,448.607 660.576,413.673 658.558,411.656 "/>
</svg>
