<?xml version="1.0" encoding="utf-8"?>
<!-- Generator: Adobe Illustrator 16.0.0, SVG Export Plug-In . SVG Version: 6.00 Build 0)  -->
<!DOCTYPE svg PUBLIC "-//W3C//DTD SVG 1.1//EN" "http://www.w3.org/Graphics/SVG/1.1/DTD/svg11.dtd">
<svg version="1.1" xmlns="http://www.w3.org/2000/svg" xmlns:xlink="http://www.w3.org/1999/xlink" x="0px" y="0px"
	 width="1601.006px" height="1120.427px" viewBox="0 0 1601.006 1120.427" enable-background="new 0 0 1601.006 1120.427"
	 xml:space="preserve">
<g id="Layer_1">
	<g>
		<text transform="matrix(1 0 0 1 680.0586 133.957)" fill="#008F9B" font-family="'UbuntuMono-Regular'" font-size="60">Timeline</text>
	</g>
	
		<line fill="none" stroke="#7EC2D1" stroke-width="6" stroke-miterlimit="10" x1="1385.441" y1="554.328" x2="208.441" y2="554.328"/>
	<g>
		<path fill="#FFFFFF" d="M1384.942,572.792c-10.435,0-18.923-8.489-18.923-18.923s8.488-18.923,18.923-18.923
			s18.923,8.489,18.923,18.923S1395.377,572.792,1384.942,572.792z"/>
		<g>
			<path fill="#008F9B" d="M1384.942,538.701c8.364,0,15.169,6.805,15.169,15.168s-6.805,15.168-15.169,15.168
				s-15.168-6.805-15.168-15.168S1376.578,538.701,1384.942,538.701 M1384.942,531.192c-12.523,0-22.677,10.152-22.677,22.677
				c0,12.523,10.153,22.677,22.677,22.677c12.524,0,22.678-10.153,22.678-22.677C1407.62,541.345,1397.467,531.192,1384.942,531.192
				L1384.942,531.192z"/>
		</g>
	</g>
	<g>
		<path fill="#FFFFFF" d="M604.998,572.327c-10.177,0-18.457-8.28-18.457-18.458s8.28-18.458,18.457-18.458
			s18.457,8.28,18.457,18.458S615.175,572.327,604.998,572.327z"/>
		<g>
			<path fill="#008F9B" d="M604.998,539.632c7.85,0,14.236,6.387,14.236,14.237s-6.387,14.237-14.236,14.237
				s-14.236-6.387-14.236-14.237S597.148,539.632,604.998,539.632 M604.998,531.191c-12.523,0-22.677,10.154-22.677,22.678
				s10.153,22.678,22.677,22.678s22.677-10.154,22.677-22.678S617.521,531.191,604.998,531.191L604.998,531.191z"/>
		</g>
	</g>
	<g>
		<path fill="#FFFFFF" d="M215.046,572.327c-10.177,0-18.456-8.28-18.456-18.458s8.279-18.458,18.456-18.458
			c10.178,0,18.458,8.28,18.458,18.458S225.224,572.327,215.046,572.327z"/>
		<g>
			<path fill="#008F9B" d="M215.046,539.632c7.851,0,14.237,6.387,14.237,14.237s-6.387,14.237-14.237,14.237
				s-14.236-6.387-14.236-14.237S207.195,539.632,215.046,539.632 M215.046,531.191c-12.523,0-22.677,10.154-22.677,22.678
				s10.153,22.678,22.677,22.678c12.524,0,22.678-10.154,22.678-22.678S227.57,531.191,215.046,531.191L215.046,531.191z"/>
		</g>
	</g>
	<g>
		<path fill="#FFFFFF" d="M994.948,572.327c-10.177,0-18.456-8.28-18.456-18.458s8.279-18.458,18.456-18.458
			c10.178,0,18.458,8.28,18.458,18.458S1005.126,572.327,994.948,572.327z"/>
		<g>
			<path fill="#008F9B" d="M994.948,539.632c7.851,0,14.237,6.387,14.237,14.237s-6.387,14.237-14.237,14.237
				s-14.236-6.387-14.236-14.237S987.098,539.632,994.948,539.632 M994.948,531.191c-12.523,0-22.677,10.154-22.677,22.678
				s10.153,22.678,22.677,22.678c12.524,0,22.678-10.154,22.678-22.678S1007.473,531.191,994.948,531.191L994.948,531.191z"/>
		</g>
	</g>
	<g>
		<rect x="280.043" y="657.312" fill="none" width="130.115" height="80.469"/>
		<text transform="matrix(1 0 0 1 300.1582 671.1914)"><tspan x="0" y="0" fill="#7EC2D1" font-family="'UbuntuMono-Bold'" font-size="20">Development </tspan><tspan x="10" y="25" fill="#7EC2D1" font-family="'UbuntuMono-Bold'" font-size="20">of the MVP</tspan></text>
	</g>
	<g>
		<rect x="561.941" y="657.312" fill="none" width="145.447" height="103.017"/>
		<text transform="matrix(1 0 0 1 577.3887 671.1914)"><tspan x="0" y="0" fill="#7EC2D1" font-family="'UbuntuMono-Bold'" font-size="20">DataCentar.io </tspan><tspan x="-10" y="25" fill="#7EC2D1" font-family="'UbuntuMono-Bold'" font-size="20">expands number </tspan><tspan x="20" y="50" fill="#7EC2D1" font-family="'UbuntuMono-Bold'" font-size="20">of datasets </tspan><tspan x="20" y="75" fill="#7EC2D1" font-family="'UbuntuMono-Bold'" font-size="20">from Serbia</tspan></text>
	</g>
	<g>
		<rect x="782.904" y="657.312" fill="none" width="145.447" height="159.017"/>
		<text transform="matrix(1 0 0 1 782.9043 671.1914)"><tspan x="0" y="0" fill="#7EC2D1" font-family="'UbuntuMono-Bold'" font-size="20">Community </tspan><tspan x="0" y="25" fill="#7EC2D1" font-family="'UbuntuMono-Bold'" font-size="20">nominates </tspan><tspan x="0" y="50" fill="#7EC2D1" font-family="'UbuntuMono-Bold'" font-size="20">future </tspan><tspan x="0" y="75" fill="#7EC2D1" font-family="'UbuntuMono-Bold'" font-size="20">datasets for </tspan><tspan x="0" y="100" fill="#7EC2D1" font-family="'UbuntuMono-Bold'" font-size="20">opening </tspan></text>
	</g>
	<g>
		<rect x="588.453" y="824.463" fill="none" width="145.447" height="103.017"/>
		<text transform="matrix(1 0 0 1 603.9004 838.3428)"><tspan x="0" y="0" fill="#7EC2D1" font-family="'UbuntuMono-Bold'" font-size="20">DataCentar.io </tspan><tspan x="20" y="25" fill="#7EC2D1" font-family="'UbuntuMono-Bold'" font-size="20">builds open </tspan><tspan x="40" y="50" fill="#7EC2D1" font-family="'UbuntuMono-Bold'" font-size="20">data user </tspan><tspan x="-10" y="75" fill="#7EC2D1" font-family="'UbuntuMono-Bold'" font-size="20">community 2016</tspan></text>
	</g>
	<g>
		<rect x="350.223" y="737.78" fill="none" width="156.738" height="47.548"/>
		<text transform="matrix(1 0 0 1 356.9609 751.6602)"><tspan x="0" y="0" fill="#7EC2D1" font-family="'UbuntuMono-Bold'" font-size="20">Structuring and </tspan><tspan x="20" y="25" fill="#7EC2D1" font-family="'UbuntuMono-Bold'" font-size="20">cleaning data</tspan></text>
	</g>
	<g>
		<polygon fill="none" points="508.754,844.836 333.334,844.836 336.334,826.012 511.754,826.012 		"/>
		<text transform="matrix(1 0 0 1 336.0957 839.8916)" fill="#0794A0" font-family="'UbuntuMono-Bold'" font-size="20">Launch of the MVP</text>
	</g>
	<g>
		<rect x="337.147" y="920.162" fill="none" width="193.815" height="152.046"/>
		<text transform="matrix(1 0 0 1 410.9629 934.042)"><tspan x="0" y="0" fill="#7EC2D1" font-family="'UbuntuMono-Bold'" font-size="20">Stakeholders </tspan><tspan x="-70" y="25" fill="#7EC2D1" font-family="'UbuntuMono-Bold'" font-size="20">workshop - Defining </tspan><tspan x="0" y="50" fill="#7EC2D1" font-family="'UbuntuMono-Bold'" font-size="20">needs, basic </tspan><tspan x="-70" y="75" fill="#7EC2D1" font-family="'UbuntuMono-Bold'" font-size="20">functionalities and </tspan><tspan x="40" y="100" fill="#7EC2D1" font-family="'UbuntuMono-Bold'" font-size="20">features</tspan></text>
	</g>
	<rect x="471.769" y="207.81" fill="none" width="180.346" height="53.606"/>
	<text transform="matrix(1 0 0 1 471.7686 221.6895)"><tspan x="0" y="0" fill="#7EC2D1" font-family="'UbuntuMono-Bold'" font-size="20">Selecting type </tspan><tspan x="0" y="25" fill="#7EC2D1" font-family="'UbuntuMono-Bold'" font-size="20">of initial data</tspan></text>
	<g>
		<rect x="501.336" y="307.65" fill="none" width="200.938" height="133.605"/>
		<text transform="matrix(1 0 0 1 501.3359 321.5303)"><tspan x="0" y="0" fill="#7EC2D1" font-family="'UbuntuMono-Bold'" font-size="20">Gathering data from </tspan><tspan x="0" y="25" fill="#7EC2D1" font-family="'UbuntuMono-Bold'" font-size="20">the Government </tspan><tspan x="0" y="50" fill="#7EC2D1" font-family="'UbuntuMono-Bold'" font-size="20">(through Freedom </tspan><tspan x="0" y="75" fill="#7EC2D1" font-family="'UbuntuMono-Bold'" font-size="20">of Information Act </tspan><tspan x="0" y="100" fill="#7EC2D1" font-family="'UbuntuMono-Bold'" font-size="20">Requests)</tspan></text>
	</g>
	<g>
		<rect x="756.902" y="207.81" fill="none" width="149.542" height="133.605"/>
		<text transform="matrix(1 0 0 1 756.9023 221.6895)"><tspan x="0" y="0" fill="#7EC2D1" font-family="'UbuntuMono-Bold'" font-size="20">Import 2016 </tspan><tspan x="0" y="25" fill="#7EC2D1" font-family="'UbuntuMono-Bold'" font-size="20">budgetary data </tspan><tspan x="0" y="50" fill="#7EC2D1" font-family="'UbuntuMono-Bold'" font-size="20">from Serbia </tspan><tspan x="0" y="75" fill="#7EC2D1" font-family="'UbuntuMono-Bold'" font-size="20">into the </tspan><tspan x="0" y="100" fill="#7EC2D1" font-family="'UbuntuMono-Bold'" font-size="20">datacenter.io</tspan></text>
	</g>
	<g>
		<rect x="864.786" y="353.579" fill="none" width="161.655" height="133.605"/>
		<text transform="matrix(1 0 0 1 864.7861 367.459)"><tspan x="0" y="0" fill="#7EC2D1" font-family="'UbuntuMono-Bold'" font-size="20">DataCentar.io </tspan><tspan x="0" y="25" fill="#7EC2D1" font-family="'UbuntuMono-Bold'" font-size="20">influence state </tspan><tspan x="0" y="50" fill="#7EC2D1" font-family="'UbuntuMono-Bold'" font-size="20">of OpenData </tspan><tspan x="0" y="75" fill="#7EC2D1" font-family="'UbuntuMono-Bold'" font-size="20">status in Serbia</tspan></text>
	</g>
	<g>
		<polygon fill="#00929E" points="301.518,832.949 303.769,835.2 308.298,830.672 307.65,830.023 306.048,828.42 301.15,823.524 
			299.546,821.918 298.899,821.272 294.369,825.802 296.62,828.054 		"/>
		<polygon fill="#00929E" points="301.516,847.613 303.769,849.864 308.299,845.335 308.037,845.073 306.047,843.083 
			301.149,838.187 299.932,836.97 298.899,835.936 294.369,840.465 296.619,842.717 		"/>
		<polygon fill="#00929E" points="293.635,845.334 292.987,844.687 291.384,843.083 286.488,838.187 285.042,836.741 
			285.042,836.741 284.883,836.583 284.236,835.936 279.706,840.465 281.958,842.717 286.854,847.613 289.104,849.864 		"/>
		<polygon fill="#7EC2D1" points="320.894,842.166 322.728,840.331 322.728,832.005 318.798,835.936 316.729,838.003 		"/>
		<polygon fill="#7EC2D1" points="309.032,845.701 305.021,849.713 313.347,849.713 315.263,847.796 311.1,843.633 		"/>
		<polygon fill="#7EC2D1" points="322.732,825.663 322.732,821.424 318.646,821.424 316.729,823.34 320.894,827.503 		"/>
		<polygon fill="#7EC2D1" points="302.067,838.002 306.23,842.166 308.298,840.099 313.194,835.201 315.263,833.133 311.1,828.97 
			309.031,831.038 304.135,835.935 		"/>
		<polygon fill="#7EC2D1" points="294.368,845.701 290.356,849.713 298.684,849.713 300.599,847.797 296.437,843.633 		"/>
		<polygon fill="#7EC2D1" points="308.298,825.436 312.31,821.424 303.984,821.424 302.067,823.34 306.23,827.503 		"/>
		<polygon fill="#7EC2D1" points="296.438,828.97 294.369,831.039 289.473,835.936 287.404,838.003 291.567,842.166 
			293.637,840.099 298.532,835.201 300.601,833.133 		"/>
		<polygon fill="#7EC2D1" points="293.637,825.436 297.646,821.424 289.32,821.424 287.403,823.34 291.567,827.503 		"/>
		<polygon fill="#00929E" points="320.71,843.083 315.813,838.187 314.21,836.583 313.562,835.935 309.031,840.465 311.283,842.717 
			316.18,847.613 318.538,849.972 322.991,849.972 322.991,845.365 322.313,844.687 		"/>
		
			<rect x="253.658" y="820.186" transform="matrix(0.7071 0.7071 -0.7071 0.7071 660.493 52.2648)" fill="#00929E" width="27.003" height="6.406"/>
		
			<rect x="271.51" y="841.821" transform="matrix(-0.7071 -0.7071 0.7071 -0.7071 -136.1399 1653.8453)" fill="#7EC2D1" width="5.886" height="26.595"/>
		<polygon fill="#7EC2D1" points="281.772,828.97 279.705,831.038 274.81,835.934 255.636,855.106 259.801,859.271 278.973,840.099 
			283.868,835.201 285.937,833.133 		"/>
		<polygon fill="#00929E" points="291.384,828.42 286.486,823.522 284.883,821.918 267.209,804.245 262.679,808.774 
			281.956,828.054 286.854,832.949 288.457,834.554 289.105,835.201 293.637,830.672 		"/>
		<polygon fill="#00929E" points="320.71,828.42 315.813,823.522 314.596,822.306 313.562,821.272 309.031,825.803 311.282,828.054 
			316.18,832.949 318.431,835.201 322.963,830.672 322.7,830.41 		"/>
	</g>
	<text transform="matrix(1 0 0 1 85.1445 565.2197)" fill="#008F9B" font-family="'UbuntuMono-Bold'" font-size="46.9163">2015</text>
	<text transform="matrix(1 0 0 1 557.9648 505.2197)" fill="#008F9B" font-family="'UbuntuMono-Bold'" font-size="46.9163">2016</text>
	<text transform="matrix(1 0 0 1 948.1953 505.2197)" fill="#008F9B" font-family="'UbuntuMono-Bold'" font-size="46.9163">2017</text>
	<text transform="matrix(1 0 0 1 1422.6943 565.2197)" fill="#008F9B" font-family="'UbuntuMono-Bold'" font-size="46.9163">2018</text>
	<polyline fill="none" stroke="#008F9B" stroke-width="3" stroke-miterlimit="10" points="475.944,553.254 475.944,586.328 
		414.192,648.08 	"/>
	<polyline fill="none" stroke="#008F9B" stroke-width="3" stroke-miterlimit="10" points="557.965,553.254 557.965,586.328 
		475.453,586.328 	"/>
	<path fill="none" stroke="#008F9B" stroke-width="3" stroke-miterlimit="10" d="M557.965,586.328"/>
	<path fill="none" stroke="#008F9B" stroke-width="3" stroke-miterlimit="10" d="M475.453,586.328"/>
	
		<line fill="none" stroke="#008F9B" stroke-width="3" stroke-miterlimit="10" x1="476.277" y1="543.667" x2="476.277" y2="256.328"/>
	
		<line fill="none" stroke="#008F9B" stroke-width="3" stroke-miterlimit="10" x1="503.961" y1="546.328" x2="503.961" y2="430.328"/>
	<path fill="none" stroke="#008F9B" stroke-width="3" stroke-miterlimit="10" d="M417.758,752.787"/>
	
		<line fill="none" stroke="#008F9B" stroke-width="3" stroke-miterlimit="10" x1="503.961" y1="591.328" x2="503.961" y2="666.583"/>
	
		<line fill="none" stroke="#008F9B" stroke-width="3" stroke-miterlimit="10" x1="503.961" y1="783.645" x2="503.961" y2="821.271"/>
	<path fill="none" stroke="#008F9B" stroke-width="3" stroke-miterlimit="10" d="M503.961,815.381"/>
	
		<line fill="none" stroke="#008F9B" stroke-width="3" stroke-miterlimit="10" x1="503.961" y1="666.583" x2="503.961" y2="729.828"/>
	
		<line fill="none" stroke="#008F9B" stroke-width="3" stroke-miterlimit="10" x1="503.961" y1="562.666" x2="503.961" y2="581.578"/>
	
		<line fill="none" stroke="#008F9B" stroke-width="3" stroke-miterlimit="10" x1="704.899" y1="562.666" x2="704.899" y2="650.828"/>
	<circle fill="#FFFFFF" stroke="#008F9B" stroke-width="3.8078" stroke-miterlimit="10" cx="476.278" cy="553.869" r="8.504"/>
	<circle fill="#FFFFFF" stroke="#008F9B" stroke-width="3.8078" stroke-miterlimit="10" cx="503.961" cy="553.869" r="8.504"/>
	
		<line fill="none" stroke="#008F9B" stroke-width="3" stroke-miterlimit="10" x1="758.902" y1="546.328" x2="758.902" y2="329.661"/>
	<circle fill="#FFFFFF" stroke="#008F9B" stroke-width="3.8078" stroke-miterlimit="10" cx="758.902" cy="553.869" r="8.504"/>
	<line fill="none" stroke="#008F9B" stroke-width="3" stroke-miterlimit="10" x1="866.91" y1="546.328" x2="866.91" y2="448.828"/>
	<circle fill="#FFFFFF" stroke="#008F9B" stroke-width="3.8078" stroke-miterlimit="10" cx="866.91" cy="553.869" r="8.504"/>
	<g>
		<rect x="1118.984" y="353.579" fill="none" width="161.654" height="133.605"/>
		<text transform="matrix(1 0 0 1 1118.9844 367.459)"><tspan x="0" y="0" fill="#7EC2D1" font-family="'UbuntuMono-Bold'" font-size="20">Datacentar.io </tspan><tspan x="0" y="25" fill="#7EC2D1" font-family="'UbuntuMono-Bold'" font-size="20">starts hosting </tspan><tspan x="0" y="50" fill="#7EC2D1" font-family="'UbuntuMono-Bold'" font-size="20">datasets from </tspan><tspan x="0" y="75" fill="#7EC2D1" font-family="'UbuntuMono-Bold'" font-size="20">countries in the </tspan><tspan x="0" y="100" fill="#7EC2D1" font-family="'UbuntuMono-Bold'" font-size="20">region</tspan></text>
	</g>
	
		<line fill="none" stroke="#008F9B" stroke-width="3" stroke-miterlimit="10" x1="1121.107" y1="546.328" x2="1121.107" y2="475.828"/>
	<circle fill="#FFFFFF" stroke="#008F9B" stroke-width="3.8078" stroke-miterlimit="10" cx="1121.107" cy="553.869" r="8.504"/>
	
		<line fill="none" stroke="#008F9B" stroke-width="3" stroke-miterlimit="10" x1="1337.411" y1="648.094" x2="1337.411" y2="550.594"/>
	
		<line fill="none" stroke="#008F9B" stroke-width="3" stroke-miterlimit="10" x1="1337.411" y1="559.828" x2="1337.411" y2="426.252"/>
	<circle fill="#FFFFFF" stroke="#008F9B" stroke-width="3.8078" stroke-miterlimit="10" cx="1337.411" cy="553.869" r="8.504"/>
	<circle fill="#FFFFFF" stroke="#008F9B" stroke-width="3.8078" stroke-miterlimit="10" cx="785.904" cy="553.869" r="8.504"/>
	
		<line fill="none" stroke="#008F9B" stroke-width="3" stroke-miterlimit="10" x1="530.963" y1="591.328" x2="530.963" y2="914.828"/>
	
		<line fill="none" stroke="#008F9B" stroke-width="3" stroke-miterlimit="10" x1="530.963" y1="562.666" x2="530.963" y2="581.578"/>
	<circle fill="#FFFFFF" stroke="#008F9B" stroke-width="3.8078" stroke-miterlimit="10" cx="530.963" cy="553.869" r="8.504"/>
	<circle fill="#FFFFFF" stroke="#008F9B" stroke-width="3.8078" stroke-miterlimit="10" cx="704.899" cy="553.869" r="8.504"/>
	<line fill="none" stroke="#008F9B" stroke-width="3" stroke-miterlimit="10" x1="731.9" y1="562.666" x2="731.9" y2="821.271"/>
	
		<line fill="none" stroke="#008F9B" stroke-width="3" stroke-miterlimit="10" x1="785.904" y1="562.666" x2="785.904" y2="650.828"/>
	<circle fill="#FFFFFF" stroke="#008F9B" stroke-width="3.8078" stroke-miterlimit="10" cx="731.9" cy="553.869" r="8.504"/>
	<g>
		<rect x="945.319" y="657.312" fill="none" width="145.446" height="203.282"/>
		<text transform="matrix(1 0 0 1 945.3193 671.1914)"><tspan x="0" y="0" fill="#7EC2D1" font-family="'UbuntuMono-Bold'" font-size="20">Import at </tspan><tspan x="0" y="25" fill="#7EC2D1" font-family="'UbuntuMono-Bold'" font-size="20">least two </tspan><tspan x="0" y="50" fill="#7EC2D1" font-family="'UbuntuMono-Bold'" font-size="20">datasets from </tspan><tspan x="0" y="75" fill="#7EC2D1" font-family="'UbuntuMono-Bold'" font-size="20">Serbia per </tspan><tspan x="0" y="100" fill="#7EC2D1" font-family="'UbuntuMono-Bold'" font-size="20">request of </tspan><tspan x="0" y="125" fill="#7EC2D1" font-family="'UbuntuMono-Bold'" font-size="20">user community </tspan><tspan x="0" y="150" fill="#7EC2D1" font-family="'UbuntuMono-Bold'" font-size="20">into the </tspan><tspan x="0" y="175" fill="#7EC2D1" font-family="'UbuntuMono-Bold'" font-size="20">datacenter.io</tspan></text>
	</g>
	<g>
		<rect x="1334.896" y="352.235" fill="none" width="145.447" height="74.017"/>
		<text transform="matrix(1 0 0 1 1334.8965 366.1152)"><tspan x="0" y="0" fill="#7EC2D1" font-family="'UbuntuMono-Bold'" font-size="20">At least two </tspan><tspan x="0" y="25" fill="#7EC2D1" font-family="'UbuntuMono-Bold'" font-size="20">Balkan region </tspan><tspan x="0" y="50" fill="#7EC2D1" font-family="'UbuntuMono-Bold'" font-size="20">countries</tspan></text>
	</g>
	<g>
		<rect x="1334.896" y="657.312" fill="none" width="145.447" height="203.282"/>
		<text transform="matrix(1 0 0 1 1334.8965 671.1914)"><tspan x="0" y="0" fill="#7EC2D1" font-family="'UbuntuMono-Bold'" font-size="20">Datacenter.io </tspan><tspan x="0" y="25" fill="#7EC2D1" font-family="'UbuntuMono-Bold'" font-size="20">hosts at least </tspan><tspan x="0" y="50" fill="#7EC2D1" font-family="'UbuntuMono-Bold'" font-size="20">two sets of </tspan><tspan x="0" y="75" fill="#7EC2D1" font-family="'UbuntuMono-Bold'" font-size="20">data from </tspan><tspan x="0" y="100" fill="#7EC2D1" font-family="'UbuntuMono-Bold'" font-size="20">acquired </tspan><tspan x="0" y="125" fill="#7EC2D1" font-family="'UbuntuMono-Bold'" font-size="20">though Serbian </tspan><tspan x="0" y="150" fill="#7EC2D1" font-family="'UbuntuMono-Bold'" font-size="20">government API</tspan></text>
	</g>
	
		<line fill="none" stroke="#008F9B" stroke-width="3" stroke-miterlimit="10" x1="947.944" y1="561.957" x2="947.944" y2="650.828"/>
	<circle fill="#FFFFFF" stroke="#008F9B" stroke-width="3.8078" stroke-miterlimit="10" cx="947.944" cy="553.869" r="8.504"/>
	<circle fill="#FFFFFF" stroke="#008F9B" stroke-width="3.8078" stroke-miterlimit="10" cx="557.965" cy="553.869" r="8.504"/>
</g>
<g id="rough_icons" display="none">
</g>
</svg>
